<svg width="795" height="495" viewBox="0 0 795 495" fill="none" xmlns="http://www.w3.org/2000/svg">
<path d="M17.9463 462.41C17.9463 461.778 18.4585 461.266 19.0903 461.266H74.6841C75.3159 461.266 75.8281 461.778 75.8281 462.41V462.41H17.9463V462.41Z" fill="#AEAEAE" fill-opacity="0.21"/>
<path d="M81.7859 462.41C81.7859 461.381 82.6204 460.546 83.6497 460.546H137.804C138.833 460.546 139.668 461.381 139.668 462.41V462.41H81.7859V462.41Z" fill="#AEAEAE" fill-opacity="0.21"/>
<path d="M145.628 462.41C145.628 461.085 146.702 460.011 148.027 460.011H201.11C202.435 460.011 203.509 461.085 203.509 462.41V462.41H145.628V462.41Z" fill="#AEAEAE" fill-opacity="0.21"/>
<path d="M210.319 462.411C210.319 459.097 213.006 456.41 216.32 456.41H262.2C265.514 456.41 268.201 459.097 268.201 462.411V462.411H210.319V462.411Z" fill="#AEAEAE" fill-opacity="0.21"/>
<path d="M274.158 462.41C274.158 457.342 278.267 453.234 283.335 453.234H322.864C327.932 453.234 332.04 457.342 332.04 462.41V462.41H274.158V462.41Z" fill="#AEAEAE" fill-opacity="0.21"/>
<path d="M337.999 453.255C337.999 445.523 344.267 439.255 351.999 439.255H381.881C389.613 439.255 395.881 445.523 395.881 453.255V462.41H337.999V453.255Z" fill="#AEAEAE" fill-opacity="0.21"/>
<path d="M401.841 422.333C401.841 414.602 408.109 408.333 415.841 408.333H445.723C453.455 408.333 459.723 414.602 459.723 422.333V462.41H401.841V422.333Z" fill="#AEAEAE" fill-opacity="0.21"/>
<path d="M465.679 369.81C465.679 362.078 471.947 355.81 479.679 355.81H509.561C517.293 355.81 523.561 362.078 523.561 369.81V462.411H465.679V369.81Z" fill="#AEAEAE" fill-opacity="0.21"/>
<path d="M529.521 322.183C529.521 314.451 535.789 308.183 543.521 308.183H573.403C581.135 308.183 587.403 314.451 587.403 322.183V462.411H529.521V322.183Z" fill="#AEAEAE" fill-opacity="0.21"/>
<path d="M594.211 300.767C594.211 293.035 600.479 286.767 608.211 286.767H638.093C645.825 286.767 652.093 293.035 652.093 300.767V462.409H594.211V300.767Z" fill="#AEAEAE" fill-opacity="0.21"/>
<path d="M658.052 208.682C658.052 200.95 664.32 194.682 672.052 194.682H701.934C709.666 194.682 715.934 200.95 715.934 208.682V462.41H658.052V208.682Z" fill="#AEAEAE" fill-opacity="0.21"/>
<path d="M721.892 55.0327C721.892 47.3007 728.16 41.0327 735.892 41.0327H765.774C773.506 41.0327 779.774 47.3007 779.774 55.0327V462.41H721.892V55.0327Z" fill="#AEAEAE" fill-opacity="0.21"/>
<path d="M35.4166 445.32C35.4166 448.92 34.6666 451.76 33.1666 453.84C31.6666 455.9 29.6166 456.93 27.0166 456.93C24.4166 456.93 22.3566 455.9 20.8366 453.84C19.3166 451.76 18.5566 448.92 18.5566 445.32C18.5566 441.76 19.3166 438.96 20.8366 436.92C22.3566 434.86 24.4166 433.83 27.0166 433.83C29.5966 433.83 31.6366 434.86 33.1366 436.92C34.6566 438.96 35.4166 441.76 35.4166 445.32ZM31.3066 445.32C31.3066 442.78 30.9366 440.85 30.1966 439.53C29.4766 438.19 28.4166 437.52 27.0166 437.52C25.5966 437.52 24.5166 438.18 23.7766 439.5C23.0566 440.82 22.6966 442.76 22.6966 445.32C22.6966 447.94 23.0566 449.92 23.7766 451.26C24.4966 452.58 25.5766 453.24 27.0166 453.24C28.4166 453.24 29.4766 452.57 30.1966 451.23C30.9366 449.89 31.3066 447.92 31.3066 445.32ZM42.9421 454.5C42.9421 455.22 42.7021 455.81 42.2221 456.27C41.7621 456.71 41.1521 456.93 40.3921 456.93C39.6521 456.93 39.0421 456.71 38.5621 456.27C38.0821 455.81 37.8421 455.22 37.8421 454.5C37.8421 453.76 38.0821 453.16 38.5621 452.7C39.0421 452.22 39.6521 451.98 40.3921 451.98C41.1521 451.98 41.7621 452.22 42.2221 452.7C42.7021 453.16 42.9421 453.76 42.9421 454.5ZM51.0595 452.79H60.1795V456.63H45.3295V453.36L49.7395 449.1C51.9795 446.94 53.5095 445.29 54.3295 444.15C55.1695 442.99 55.5895 441.9 55.5895 440.88C55.5895 439.86 55.2895 439.05 54.6895 438.45C54.1095 437.83 53.3195 437.52 52.3195 437.52C51.3395 437.52 50.5095 437.84 49.8295 438.48C49.1495 439.1 48.7395 439.95 48.5995 441.03L44.6395 440.25C44.9595 438.25 45.8195 436.68 47.2195 435.54C48.6395 434.4 50.3995 433.83 52.4995 433.83C54.6595 433.83 56.3995 434.47 57.7195 435.75C59.0595 437.03 59.7295 438.7 59.7295 440.76C59.7295 442.16 59.2795 443.54 58.3795 444.9C57.4995 446.26 55.6795 448.28 52.9195 450.96L51.0595 452.79ZM70.4941 441.93C72.6741 441.93 74.4241 442.6 75.7441 443.94C77.0841 445.28 77.7541 447.03 77.7541 449.19C77.7541 451.49 77.0141 453.36 75.5341 454.8C74.0541 456.22 72.1041 456.93 69.6841 456.93C67.5841 456.93 65.8141 456.4 64.3741 455.34C62.9541 454.28 62.0941 452.82 61.7941 450.96L65.8141 449.94C65.9141 450.96 66.3141 451.76 67.0141 452.34C67.7141 452.9 68.6041 453.18 69.6841 453.18C70.8641 453.18 71.8141 452.83 72.5341 452.13C73.2741 451.41 73.6441 450.47 73.6441 449.31C73.6441 448.13 73.2841 447.18 72.5641 446.46C71.8441 445.74 70.9041 445.38 69.7441 445.38C68.9841 445.38 68.3041 445.53 67.7041 445.83C67.1241 446.11 66.6841 446.51 66.3841 447.03L62.9641 446.1L64.8241 434.13H76.7341V437.79H68.0941L67.3441 442.59C67.8241 442.37 68.3241 442.21 68.8441 442.11C69.3641 441.99 69.9141 441.93 70.4941 441.93Z" fill="black"/>
<path d="M100.895 452.693H96.9054V436.553H92.3154V434.093C93.6354 434.013 94.7754 433.613 95.7354 432.893C96.6954 432.173 97.3354 431.273 97.6554 430.193H100.895V452.693ZM109.899 450.563C109.899 451.283 109.659 451.873 109.179 452.333C108.719 452.773 108.109 452.993 107.349 452.993C106.609 452.993 105.999 452.773 105.519 452.333C105.039 451.873 104.799 451.283 104.799 450.563C104.799 449.823 105.039 449.223 105.519 448.763C105.999 448.283 106.609 448.043 107.349 448.043C108.109 448.043 108.719 448.283 109.179 448.763C109.659 449.223 109.899 449.823 109.899 450.563ZM120.327 437.993C122.507 437.993 124.257 438.663 125.577 440.003C126.917 441.343 127.587 443.093 127.587 445.253C127.587 447.553 126.847 449.423 125.367 450.863C123.887 452.283 121.937 452.993 119.517 452.993C117.417 452.993 115.647 452.463 114.207 451.403C112.787 450.343 111.927 448.883 111.627 447.023L115.647 446.003C115.747 447.023 116.147 447.823 116.847 448.403C117.547 448.963 118.437 449.243 119.517 449.243C120.697 449.243 121.647 448.893 122.367 448.193C123.107 447.473 123.477 446.533 123.477 445.373C123.477 444.193 123.117 443.243 122.397 442.523C121.677 441.803 120.737 441.443 119.577 441.443C118.817 441.443 118.137 441.593 117.537 441.893C116.957 442.173 116.517 442.573 116.217 443.093L112.797 442.163L114.657 430.193H126.567V433.853H117.927L117.177 438.653C117.657 438.433 118.157 438.273 118.677 438.173C119.197 438.053 119.747 437.993 120.327 437.993Z" fill="black"/>
<path d="M160.866 448.853H169.986V452.693H155.136V449.423L159.546 445.163C161.786 443.003 163.316 441.353 164.136 440.213C164.976 439.053 165.396 437.963 165.396 436.943C165.396 435.923 165.096 435.113 164.496 434.513C163.916 433.893 163.126 433.583 162.126 433.583C161.146 433.583 160.316 433.903 159.636 434.543C158.956 435.163 158.546 436.013 158.406 437.093L154.446 436.313C154.766 434.313 155.626 432.743 157.026 431.603C158.446 430.463 160.206 429.893 162.306 429.893C164.466 429.893 166.206 430.533 167.526 431.813C168.866 433.093 169.536 434.763 169.536 436.823C169.536 438.223 169.086 439.603 168.186 440.963C167.306 442.323 165.486 444.343 162.726 447.023L160.866 448.853ZM177.301 450.563C177.301 451.283 177.061 451.873 176.581 452.333C176.121 452.773 175.511 452.993 174.751 452.993C174.011 452.993 173.401 452.773 172.921 452.333C172.441 451.873 172.201 451.283 172.201 450.563C172.201 449.823 172.441 449.223 172.921 448.763C173.401 448.283 174.011 448.043 174.751 448.043C175.511 448.043 176.121 448.283 176.581 448.763C177.061 449.223 177.301 449.823 177.301 450.563ZM195.078 445.433C195.078 447.673 194.328 449.493 192.828 450.893C191.328 452.293 189.418 452.993 187.098 452.993C184.798 452.993 182.908 452.313 181.428 450.953C179.948 449.573 179.208 447.793 179.208 445.613C179.208 444.713 179.358 443.813 179.658 442.913C179.958 441.993 180.408 441.073 181.008 440.153L187.548 430.193H192.078L186.618 438.383C186.798 438.363 186.978 438.343 187.158 438.323C187.358 438.303 187.558 438.293 187.758 438.293C189.898 438.293 191.648 438.953 193.008 440.273C194.388 441.593 195.078 443.313 195.078 445.433ZM183.288 445.403C183.288 446.543 183.638 447.483 184.338 448.223C185.058 448.943 185.978 449.303 187.098 449.303C188.238 449.303 189.168 448.943 189.888 448.223C190.608 447.503 190.968 446.563 190.968 445.403C190.968 444.303 190.608 443.403 189.888 442.703C189.168 442.003 188.248 441.653 187.128 441.653C186.648 441.653 186.178 441.733 185.718 441.893C185.258 442.053 184.858 442.273 184.518 442.553C184.118 442.913 183.808 443.333 183.588 443.813C183.388 444.293 183.288 444.823 183.288 445.403Z" fill="black"/>
<path d="M237.054 447.217H233.064V431.077H228.474V428.617C229.794 428.537 230.934 428.137 231.894 427.417C232.854 426.697 233.494 425.797 233.814 424.717H237.054V447.217ZM248.788 447.217H244.798V431.077H240.208V428.617C241.528 428.537 242.668 428.137 243.628 427.417C244.588 426.697 245.228 425.797 245.548 424.717H248.788V447.217Z" fill="black"/>
<path d="M298.12 443.272H294.13V427.132H289.54V424.672C290.86 424.592 292 424.192 292.96 423.472C293.92 422.752 294.56 421.852 294.88 420.772H298.12V443.272ZM307.064 443.272H302.774L311.744 424.402H301.304V420.772H316.094V424.222L307.064 443.272Z" fill="black"/>
<path d="M363.952 426.137H360.022V421.337H349.852V417.917L358.972 403.637H363.952V417.677H367.162V421.337H363.952V426.137ZM360.022 408.497L354.112 417.677H360.022V408.497ZM381.868 426.137H377.938V421.337H367.768V417.917L376.888 403.637H381.868V417.677H385.078V421.337H381.868V426.137ZM377.938 408.497L372.028 417.677H377.938V408.497Z" fill="black"/>
<path d="M415.164 396.761H411.174V380.621H406.584V378.161C407.904 378.081 409.044 377.681 410.004 376.961C410.964 376.241 411.604 375.341 411.924 374.261H415.164V396.761ZM436.228 385.451C436.228 389.051 435.478 391.891 433.978 393.971C432.478 396.031 430.428 397.061 427.828 397.061C425.228 397.061 423.168 396.031 421.648 393.971C420.128 391.891 419.368 389.051 419.368 385.451C419.368 381.891 420.128 379.091 421.648 377.051C423.168 374.991 425.228 373.961 427.828 373.961C430.408 373.961 432.448 374.991 433.948 377.051C435.468 379.091 436.228 381.891 436.228 385.451ZM432.118 385.451C432.118 382.911 431.748 380.981 431.008 379.661C430.288 378.321 429.228 377.651 427.828 377.651C426.408 377.651 425.328 378.311 424.588 379.631C423.868 380.951 423.508 382.891 423.508 385.451C423.508 388.071 423.868 390.051 424.588 391.391C425.308 392.711 426.388 393.371 427.828 393.371C429.228 393.371 430.288 392.701 431.008 391.361C431.748 390.021 432.118 388.051 432.118 385.451ZM455.148 390.221C455.148 392.261 454.388 393.911 452.868 395.171C451.368 396.431 449.438 397.061 447.078 397.061C444.718 397.061 442.788 396.431 441.288 395.171C439.788 393.911 439.038 392.261 439.038 390.221C439.038 389.001 439.338 387.911 439.938 386.951C440.538 385.991 441.398 385.241 442.518 384.701C441.698 384.161 441.068 383.501 440.628 382.721C440.208 381.921 439.998 381.041 439.998 380.081C439.998 378.261 440.658 376.791 441.978 375.671C443.318 374.531 445.018 373.961 447.078 373.961C449.158 373.961 450.858 374.531 452.178 375.671C453.518 376.791 454.188 378.261 454.188 380.081C454.188 381.001 453.968 381.861 453.528 382.661C453.108 383.441 452.498 384.121 451.698 384.701C452.798 385.241 453.648 385.991 454.248 386.951C454.848 387.911 455.148 389.001 455.148 390.221ZM447.078 383.321C448.018 383.321 448.788 383.051 449.388 382.511C449.988 381.951 450.288 381.241 450.288 380.381C450.288 379.541 449.988 378.861 449.388 378.341C448.788 377.801 448.018 377.531 447.078 377.531C446.158 377.531 445.398 377.801 444.798 378.341C444.218 378.861 443.928 379.541 443.928 380.381C443.928 381.241 444.218 381.951 444.798 382.511C445.398 383.051 446.158 383.321 447.078 383.321ZM447.108 393.281C448.248 393.281 449.178 392.981 449.898 392.381C450.638 391.761 451.008 390.951 451.008 389.951C451.008 388.951 450.638 388.141 449.898 387.521C449.178 386.901 448.248 386.591 447.108 386.591C445.948 386.591 444.998 386.901 444.258 387.521C443.538 388.141 443.178 388.951 443.178 389.951C443.178 390.951 443.538 391.761 444.258 392.381C444.998 392.981 445.948 393.281 447.108 393.281Z" fill="black"/>
<path d="M478.428 342.465H487.548V346.305H472.698V343.035L477.108 338.775C479.348 336.615 480.878 334.965 481.698 333.825C482.538 332.665 482.958 331.575 482.958 330.555C482.958 329.535 482.658 328.725 482.058 328.125C481.478 327.505 480.688 327.195 479.688 327.195C478.708 327.195 477.878 327.515 477.198 328.155C476.518 328.775 476.108 329.625 475.968 330.705L472.008 329.925C472.328 327.925 473.188 326.355 474.588 325.215C476.008 324.075 477.768 323.505 479.868 323.505C482.028 323.505 483.768 324.145 485.088 325.425C486.428 326.705 487.098 328.375 487.098 330.435C487.098 331.835 486.648 333.215 485.748 334.575C484.868 335.935 483.048 337.955 480.288 340.635L478.428 342.465ZM497.593 346.305H493.603V330.165H489.013V327.705C490.333 327.625 491.473 327.225 492.433 326.505C493.393 325.785 494.033 324.885 494.353 323.805H497.593V346.305ZM509.597 331.605C511.777 331.605 513.527 332.275 514.847 333.615C516.187 334.955 516.857 336.705 516.857 338.865C516.857 341.165 516.117 343.035 514.637 344.475C513.157 345.895 511.207 346.605 508.787 346.605C506.687 346.605 504.917 346.075 503.477 345.015C502.057 343.955 501.197 342.495 500.897 340.635L504.917 339.615C505.017 340.635 505.417 341.435 506.117 342.015C506.817 342.575 507.707 342.855 508.787 342.855C509.967 342.855 510.917 342.505 511.637 341.805C512.377 341.085 512.747 340.145 512.747 338.985C512.747 337.805 512.387 336.855 511.667 336.135C510.947 335.415 510.007 335.055 508.847 335.055C508.087 335.055 507.407 335.205 506.807 335.505C506.227 335.785 505.787 336.185 505.487 336.705L502.067 335.775L503.927 323.805H515.837V327.465H507.197L506.447 332.265C506.927 332.045 507.427 331.885 507.947 331.785C508.467 331.665 509.017 331.605 509.597 331.605Z" fill="black"/>
<path d="M550.212 290.378C550.212 292.398 549.472 294.038 547.992 295.298C546.512 296.538 544.632 297.158 542.352 297.158C540.172 297.158 538.372 296.598 536.952 295.478C535.532 294.338 534.662 292.748 534.342 290.708L538.362 289.628C538.502 290.828 538.912 291.758 539.592 292.418C540.292 293.058 541.212 293.378 542.352 293.378C543.452 293.378 544.342 293.088 545.022 292.508C545.722 291.928 546.072 291.158 546.072 290.198C546.072 289.298 545.772 288.568 545.172 288.008C544.572 287.448 543.802 287.168 542.862 287.168H540.702V283.448H542.412C543.332 283.448 544.082 283.188 544.662 282.668C545.262 282.148 545.562 281.458 545.562 280.598C545.562 279.738 545.272 279.048 544.692 278.528C544.112 277.988 543.362 277.718 542.442 277.718C541.502 277.718 540.702 277.988 540.042 278.528C539.402 279.048 538.982 279.768 538.782 280.688L534.882 279.788C535.242 278.028 536.112 276.638 537.492 275.618C538.892 274.578 540.602 274.058 542.622 274.058C544.722 274.058 546.412 274.618 547.692 275.738C548.992 276.858 549.642 278.328 549.642 280.148C549.642 281.188 549.402 282.108 548.922 282.908C548.442 283.708 547.702 284.418 546.702 285.038C547.822 285.478 548.682 286.168 549.282 287.108C549.902 288.028 550.212 289.118 550.212 290.378ZM560.456 296.858H556.466V280.718H551.876V278.258C553.196 278.178 554.336 277.778 555.296 277.058C556.256 276.338 556.896 275.438 557.216 274.358H560.456V296.858ZM579.51 290.378C579.51 292.398 578.77 294.038 577.29 295.298C575.81 296.538 573.93 297.158 571.65 297.158C569.47 297.158 567.67 296.598 566.25 295.478C564.83 294.338 563.96 292.748 563.64 290.708L567.66 289.628C567.8 290.828 568.21 291.758 568.89 292.418C569.59 293.058 570.51 293.378 571.65 293.378C572.75 293.378 573.64 293.088 574.32 292.508C575.02 291.928 575.37 291.158 575.37 290.198C575.37 289.298 575.07 288.568 574.47 288.008C573.87 287.448 573.1 287.168 572.16 287.168H570V283.448H571.71C572.63 283.448 573.38 283.188 573.96 282.668C574.56 282.148 574.86 281.458 574.86 280.598C574.86 279.738 574.57 279.048 573.99 278.528C573.41 277.988 572.66 277.718 571.74 277.718C570.8 277.718 570 277.988 569.34 278.528C568.7 279.048 568.28 279.768 568.08 280.688L564.18 279.788C564.54 278.028 565.41 276.638 566.79 275.618C568.19 274.578 569.9 274.058 571.92 274.058C574.02 274.058 575.71 274.618 576.99 275.738C578.29 276.858 578.94 278.328 578.94 280.148C578.94 281.188 578.7 282.108 578.22 282.908C577.74 283.708 577 284.418 576 285.038C577.12 285.478 577.98 286.168 578.58 287.108C579.2 288.028 579.51 289.118 579.51 290.378Z" fill="black"/>
<path d="M613.288 269.894C613.288 271.914 612.548 273.554 611.068 274.814C609.588 276.054 607.708 276.674 605.428 276.674C603.248 276.674 601.448 276.114 600.028 274.994C598.608 273.854 597.738 272.264 597.418 270.224L601.438 269.144C601.578 270.344 601.988 271.274 602.668 271.934C603.368 272.574 604.288 272.894 605.428 272.894C606.528 272.894 607.418 272.604 608.098 272.024C608.798 271.444 609.148 270.674 609.148 269.714C609.148 268.814 608.848 268.084 608.248 267.524C607.648 266.964 606.878 266.684 605.938 266.684H603.778V262.964H605.488C606.408 262.964 607.158 262.704 607.738 262.184C608.338 261.664 608.638 260.974 608.638 260.114C608.638 259.254 608.348 258.564 607.768 258.044C607.188 257.504 606.438 257.234 605.518 257.234C604.578 257.234 603.778 257.504 603.118 258.044C602.478 258.564 602.058 259.284 601.858 260.204L597.958 259.304C598.318 257.544 599.188 256.154 600.568 255.134C601.968 254.094 603.678 253.574 605.698 253.574C607.798 253.574 609.488 254.134 610.768 255.254C612.068 256.374 612.718 257.844 612.718 259.664C612.718 260.704 612.478 261.624 611.998 262.424C611.518 263.224 610.778 263.934 609.778 264.554C610.898 264.994 611.758 265.684 612.358 266.624C612.978 267.544 613.288 268.634 613.288 269.894ZM623.802 261.674C625.982 261.674 627.732 262.344 629.052 263.684C630.392 265.024 631.062 266.774 631.062 268.934C631.062 271.234 630.322 273.104 628.842 274.544C627.362 275.964 625.412 276.674 622.992 276.674C620.892 276.674 619.122 276.144 617.682 275.084C616.262 274.024 615.402 272.564 615.102 270.704L619.122 269.684C619.222 270.704 619.622 271.504 620.322 272.084C621.022 272.644 621.912 272.924 622.992 272.924C624.172 272.924 625.122 272.574 625.842 271.874C626.582 271.154 626.952 270.214 626.952 269.054C626.952 267.874 626.592 266.924 625.872 266.204C625.152 265.484 624.212 265.124 623.052 265.124C622.292 265.124 621.612 265.274 621.012 265.574C620.432 265.854 619.992 266.254 619.692 266.774L616.272 265.844L618.132 253.874H630.042V257.534H621.402L620.652 262.334C621.132 262.114 621.632 261.954 622.152 261.854C622.672 261.734 623.222 261.674 623.802 261.674ZM648.599 269.114C648.599 271.354 647.849 273.174 646.349 274.574C644.849 275.974 642.939 276.674 640.619 276.674C638.319 276.674 636.429 275.994 634.949 274.634C633.469 273.254 632.729 271.474 632.729 269.294C632.729 268.394 632.879 267.494 633.179 266.594C633.479 265.674 633.929 264.754 634.529 263.834L641.069 253.874H645.599L640.139 262.064C640.319 262.044 640.499 262.024 640.679 262.004C640.879 261.984 641.079 261.974 641.279 261.974C643.419 261.974 645.169 262.634 646.529 263.954C647.909 265.274 648.599 266.994 648.599 269.114ZM636.809 269.084C636.809 270.224 637.159 271.164 637.859 271.904C638.579 272.624 639.499 272.984 640.619 272.984C641.759 272.984 642.689 272.624 643.409 271.904C644.129 271.184 644.489 270.244 644.489 269.084C644.489 267.984 644.129 267.084 643.409 266.384C642.689 265.684 641.769 265.334 640.649 265.334C640.169 265.334 639.699 265.414 639.239 265.574C638.779 265.734 638.379 265.954 638.039 266.234C637.639 266.594 637.329 267.014 637.109 267.494C636.909 267.974 636.809 268.504 636.809 269.084Z" fill="black"/>
<path d="M669.096 167.801C671.276 167.801 673.026 168.471 674.346 169.811C675.686 171.151 676.356 172.901 676.356 175.061C676.356 177.361 675.616 179.231 674.136 180.671C672.656 182.091 670.706 182.801 668.286 182.801C666.186 182.801 664.416 182.271 662.976 181.211C661.556 180.151 660.696 178.691 660.396 176.831L664.416 175.811C664.516 176.831 664.916 177.631 665.616 178.211C666.316 178.771 667.206 179.051 668.286 179.051C669.466 179.051 670.416 178.701 671.136 178.001C671.876 177.281 672.246 176.341 672.246 175.181C672.246 174.001 671.886 173.051 671.166 172.331C670.446 171.611 669.506 171.251 668.346 171.251C667.586 171.251 666.906 171.401 666.306 171.701C665.726 171.981 665.286 172.381 664.986 172.901L661.566 171.971L663.426 160.001H675.336V163.661H666.696L665.946 168.461C666.426 168.241 666.926 168.081 667.446 167.981C667.966 167.861 668.516 167.801 669.096 167.801ZM691.673 182.501H687.743V177.701H677.573V174.281L686.693 160.001H691.673V174.041H694.883V177.701H691.673V182.501ZM687.743 164.861L681.833 174.041H687.743V164.861ZM709.589 182.501H705.659V177.701H695.489V174.281L704.609 160.001H709.589V174.041H712.799V177.701H709.589V182.501ZM705.659 164.861L699.749 174.041H705.659V164.861Z" fill="black"/>
<path d="M744.799 22.5911C744.799 24.6311 744.039 26.2811 742.519 27.5411C741.019 28.8011 739.089 29.4311 736.729 29.4311C734.369 29.4311 732.439 28.8011 730.939 27.5411C729.439 26.2811 728.689 24.6311 728.689 22.5911C728.689 21.3711 728.989 20.2811 729.589 19.3211C730.189 18.3611 731.049 17.6111 732.169 17.0711C731.349 16.5311 730.719 15.8711 730.279 15.0911C729.859 14.2911 729.649 13.4111 729.649 12.4511C729.649 10.6311 730.309 9.1611 731.629 8.0411C732.969 6.9011 734.669 6.3311 736.729 6.3311C738.809 6.3311 740.509 6.9011 741.829 8.0411C743.169 9.1611 743.839 10.6311 743.839 12.4511C743.839 13.3711 743.619 14.2311 743.179 15.0311C742.759 15.8111 742.149 16.4911 741.349 17.0711C742.449 17.6111 743.299 18.3611 743.899 19.3211C744.499 20.2811 744.799 21.3711 744.799 22.5911ZM736.729 15.6911C737.669 15.6911 738.439 15.4211 739.039 14.8811C739.639 14.3211 739.939 13.6111 739.939 12.7511C739.939 11.9111 739.639 11.2311 739.039 10.7111C738.439 10.1711 737.669 9.9011 736.729 9.9011C735.809 9.9011 735.049 10.1711 734.449 10.7111C733.869 11.2311 733.579 11.9111 733.579 12.7511C733.579 13.6111 733.869 14.3211 734.449 14.8811C735.049 15.4211 735.809 15.6911 736.729 15.6911ZM736.759 25.6511C737.899 25.6511 738.829 25.3511 739.549 24.7511C740.289 24.1311 740.659 23.3211 740.659 22.3211C740.659 21.3211 740.289 20.5111 739.549 19.8911C738.829 19.2711 737.899 18.9611 736.759 18.9611C735.599 18.9611 734.649 19.2711 733.909 19.8911C733.189 20.5111 732.829 21.3211 732.829 22.3211C732.829 23.3211 733.189 24.1311 733.909 24.7511C734.649 25.3511 735.599 25.6511 736.759 25.6511ZM762.425 22.6511C762.425 24.6711 761.685 26.3111 760.205 27.5711C758.725 28.8111 756.845 29.4311 754.565 29.4311C752.385 29.4311 750.585 28.8711 749.165 27.7511C747.745 26.6111 746.875 25.0211 746.555 22.9811L750.575 21.9011C750.715 23.1011 751.125 24.0311 751.805 24.6911C752.505 25.3311 753.425 25.6511 754.565 25.6511C755.665 25.6511 756.555 25.3611 757.235 24.7811C757.935 24.2011 758.285 23.4311 758.285 22.4711C758.285 21.5711 757.985 20.8411 757.385 20.2811C756.785 19.7211 756.015 19.4411 755.075 19.4411H752.915V15.7211H754.625C755.545 15.7211 756.295 15.4611 756.875 14.9411C757.475 14.4211 757.775 13.7311 757.775 12.8711C757.775 12.0111 757.485 11.3211 756.905 10.8011C756.325 10.2611 755.575 9.9911 754.655 9.9911C753.715 9.9911 752.915 10.2611 752.255 10.8011C751.615 11.3211 751.195 12.0411 750.995 12.9611L747.095 12.0611C747.455 10.3011 748.325 8.9111 749.705 7.8911C751.105 6.8511 752.815 6.3311 754.835 6.3311C756.935 6.3311 758.625 6.8911 759.905 8.0111C761.205 9.1311 761.855 10.6011 761.855 12.4211C761.855 13.4611 761.615 14.3811 761.135 15.1811C760.655 15.9811 759.915 16.6911 758.915 17.3111C760.035 17.7511 760.895 18.4411 761.495 19.3811C762.115 20.3011 762.425 21.3911 762.425 22.6511ZM772.669 29.1311H768.679V12.9911H764.089V10.5311C765.409 10.4511 766.549 10.0511 767.509 9.3311C768.469 8.6111 769.109 7.7111 769.429 6.6311H772.669V29.1311Z" fill="black"/>
<path d="M31.5204 493.121H38.7604V494.701H29.2204V493.301L33.7404 488.621C34.8737 487.475 35.627 486.575 36.0004 485.921C36.387 485.255 36.5804 484.588 36.5804 483.921C36.5804 483.081 36.307 482.401 35.7604 481.881C35.227 481.361 34.527 481.101 33.6604 481.101C32.7937 481.101 32.0737 481.355 31.5004 481.861C30.927 482.355 30.5737 483.055 30.4404 483.961L28.8004 483.621C29.027 482.355 29.5804 481.361 30.4604 480.641C31.3537 479.908 32.447 479.541 33.7404 479.541C35.1004 479.541 36.2004 479.941 37.0404 480.741C37.8804 481.541 38.3004 482.588 38.3004 483.881C38.3004 484.695 38.0937 485.481 37.6804 486.241C37.2804 486.988 36.4137 488.048 35.0804 489.421L31.5204 493.121ZM50.9076 487.161C50.9076 489.535 50.4209 491.415 49.4476 492.801C48.4742 494.175 47.1609 494.861 45.5076 494.861C43.8542 494.861 42.5409 494.175 41.5676 492.801C40.5942 491.415 40.1076 489.535 40.1076 487.161C40.1076 484.815 40.5942 482.961 41.5676 481.601C42.5409 480.228 43.8542 479.541 45.5076 479.541C47.1609 479.541 48.4742 480.228 49.4476 481.601C50.4209 482.961 50.9076 484.815 50.9076 487.161ZM49.1676 487.161C49.1676 485.268 48.8409 483.788 48.1876 482.721C47.5476 481.641 46.6542 481.101 45.5076 481.101C44.3476 481.101 43.4409 481.641 42.7876 482.721C42.1476 483.788 41.8276 485.268 41.8276 487.161C41.8276 489.081 42.1542 490.588 42.8076 491.681C43.4609 492.761 44.3609 493.301 45.5076 493.301C46.6542 493.301 47.5476 492.761 48.1876 491.681C48.8409 490.588 49.1676 489.081 49.1676 487.161ZM56.6404 494.701H54.9804V483.041H52.2604V482.061C53.1404 482.008 53.8537 481.781 54.4004 481.381C54.947 480.968 55.287 480.408 55.4204 479.701H56.6404V494.701ZM63.2818 494.701H61.6218V483.041H58.9018V482.061C59.7818 482.008 60.4951 481.781 61.0418 481.381C61.5884 480.968 61.9284 480.408 62.0618 479.701H63.2818V494.701Z" fill="black"/>
<path d="M93.557 493.121H100.797V494.701H91.257V493.301L95.777 488.621C96.9103 487.475 97.6637 486.575 98.037 485.921C98.4237 485.255 98.617 484.588 98.617 483.921C98.617 483.081 98.3437 482.401 97.797 481.881C97.2637 481.361 96.5637 481.101 95.697 481.101C94.8303 481.101 94.1103 481.355 93.537 481.861C92.9637 482.355 92.6103 483.055 92.477 483.961L90.837 483.621C91.0637 482.355 91.617 481.361 92.497 480.641C93.3903 479.908 94.4837 479.541 95.777 479.541C97.137 479.541 98.237 479.941 99.077 480.741C99.917 481.541 100.337 482.588 100.337 483.881C100.337 484.695 100.13 485.481 99.717 486.241C99.317 486.988 98.4503 488.048 97.117 489.421L93.557 493.121ZM112.944 487.161C112.944 489.535 112.458 491.415 111.484 492.801C110.511 494.175 109.198 494.861 107.544 494.861C105.891 494.861 104.578 494.175 103.604 492.801C102.631 491.415 102.144 489.535 102.144 487.161C102.144 484.815 102.631 482.961 103.604 481.601C104.578 480.228 105.891 479.541 107.544 479.541C109.198 479.541 110.511 480.228 111.484 481.601C112.458 482.961 112.944 484.815 112.944 487.161ZM111.204 487.161C111.204 485.268 110.878 483.788 110.224 482.721C109.584 481.641 108.691 481.101 107.544 481.101C106.384 481.101 105.478 481.641 104.824 482.721C104.184 483.788 103.864 485.268 103.864 487.161C103.864 489.081 104.191 490.588 104.844 491.681C105.498 492.761 106.398 493.301 107.544 493.301C108.691 493.301 109.584 492.761 110.224 491.681C110.878 490.588 111.204 489.081 111.204 487.161ZM118.677 494.701H117.017V483.041H114.297V482.061C115.177 482.008 115.89 481.781 116.437 481.381C116.984 480.968 117.324 480.408 117.457 479.701H118.677V494.701ZM123.598 493.121H130.838V494.701H121.298V493.301L125.818 488.621C126.952 487.475 127.705 486.575 128.078 485.921C128.465 485.255 128.658 484.588 128.658 483.921C128.658 483.081 128.385 482.401 127.838 481.881C127.305 481.361 126.605 481.101 125.738 481.101C124.872 481.101 124.152 481.355 123.578 481.861C123.005 482.355 122.652 483.055 122.518 483.961L120.878 483.621C121.105 482.355 121.658 481.361 122.538 480.641C123.432 479.908 124.525 479.541 125.818 479.541C127.178 479.541 128.278 479.941 129.118 480.741C129.958 481.541 130.378 482.588 130.378 483.881C130.378 484.695 130.172 485.481 129.758 486.241C129.358 486.988 128.492 488.048 127.158 489.421L123.598 493.121Z" fill="black"/>
<path d="M157.147 493.121H164.387V494.701H154.847V493.301L159.367 488.621C160.5 487.475 161.254 486.575 161.627 485.921C162.014 485.255 162.207 484.588 162.207 483.921C162.207 483.081 161.934 482.401 161.387 481.881C160.854 481.361 160.154 481.101 159.287 481.101C158.42 481.101 157.7 481.355 157.127 481.861C156.554 482.355 156.2 483.055 156.067 483.961L154.427 483.621C154.654 482.355 155.207 481.361 156.087 480.641C156.98 479.908 158.074 479.541 159.367 479.541C160.727 479.541 161.827 479.941 162.667 480.741C163.507 481.541 163.927 482.588 163.927 483.881C163.927 484.695 163.72 485.481 163.307 486.241C162.907 486.988 162.04 488.048 160.707 489.421L157.147 493.121ZM176.534 487.161C176.534 489.535 176.047 491.415 175.074 492.801C174.101 494.175 172.787 494.861 171.134 494.861C169.481 494.861 168.167 494.175 167.194 492.801C166.221 491.415 165.734 489.535 165.734 487.161C165.734 484.815 166.221 482.961 167.194 481.601C168.167 480.228 169.481 479.541 171.134 479.541C172.787 479.541 174.101 480.228 175.074 481.601C176.047 482.961 176.534 484.815 176.534 487.161ZM174.794 487.161C174.794 485.268 174.467 483.788 173.814 482.721C173.174 481.641 172.281 481.101 171.134 481.101C169.974 481.101 169.067 481.641 168.414 482.721C167.774 483.788 167.454 485.268 167.454 487.161C167.454 489.081 167.781 490.588 168.434 491.681C169.087 492.761 169.987 493.301 171.134 493.301C172.281 493.301 173.174 492.761 173.814 491.681C174.467 490.588 174.794 489.081 174.794 487.161ZM182.267 494.701H180.607V483.041H177.887V482.061C178.767 482.008 179.48 481.781 180.027 481.381C180.574 480.968 180.914 480.408 181.047 479.701H182.267V494.701ZM194.768 490.441C194.768 491.748 194.288 492.815 193.328 493.641C192.382 494.455 191.175 494.861 189.708 494.861C188.308 494.861 187.162 494.501 186.268 493.781C185.375 493.061 184.808 492.021 184.568 490.661L186.228 490.241C186.402 491.241 186.782 492.001 187.368 492.521C187.968 493.041 188.748 493.301 189.708 493.301C190.708 493.301 191.508 493.041 192.108 492.521C192.722 492.001 193.028 491.295 193.028 490.401C193.028 489.535 192.762 488.868 192.228 488.401C191.708 487.935 190.962 487.701 189.988 487.701H188.548V486.161H189.848C190.728 486.161 191.415 485.941 191.908 485.501C192.402 485.048 192.648 484.421 192.648 483.621C192.648 482.835 192.388 482.215 191.868 481.761C191.362 481.308 190.668 481.081 189.788 481.081C188.975 481.081 188.288 481.301 187.728 481.741C187.168 482.181 186.808 482.808 186.648 483.621L185.028 483.241C185.295 482.081 185.862 481.175 186.728 480.521C187.595 479.868 188.635 479.541 189.848 479.541C191.208 479.541 192.302 479.901 193.128 480.621C193.955 481.341 194.368 482.301 194.368 483.501C194.368 484.221 194.182 484.868 193.808 485.441C193.448 486.001 192.922 486.461 192.228 486.821C193.042 487.088 193.668 487.541 194.108 488.181C194.548 488.808 194.768 489.561 194.768 490.441Z" fill="black"/>
<path d="M221.204 493.121H228.444V494.701H218.904V493.301L223.424 488.621C224.558 487.475 225.311 486.575 225.684 485.921C226.071 485.255 226.264 484.588 226.264 483.921C226.264 483.081 225.991 482.401 225.444 481.881C224.911 481.361 224.211 481.101 223.344 481.101C222.478 481.101 221.758 481.355 221.184 481.861C220.611 482.355 220.258 483.055 220.124 483.961L218.484 483.621C218.711 482.355 219.264 481.361 220.144 480.641C221.038 479.908 222.131 479.541 223.424 479.541C224.784 479.541 225.884 479.941 226.724 480.741C227.564 481.541 227.984 482.588 227.984 483.881C227.984 484.695 227.778 485.481 227.364 486.241C226.964 486.988 226.098 488.048 224.764 489.421L221.204 493.121ZM240.592 487.161C240.592 489.535 240.105 491.415 239.132 492.801C238.158 494.175 236.845 494.861 235.192 494.861C233.538 494.861 232.225 494.175 231.252 492.801C230.278 491.415 229.792 489.535 229.792 487.161C229.792 484.815 230.278 482.961 231.252 481.601C232.225 480.228 233.538 479.541 235.192 479.541C236.845 479.541 238.158 480.228 239.132 481.601C240.105 482.961 240.592 484.815 240.592 487.161ZM238.852 487.161C238.852 485.268 238.525 483.788 237.872 482.721C237.232 481.641 236.338 481.101 235.192 481.101C234.032 481.101 233.125 481.641 232.472 482.721C231.832 483.788 231.512 485.268 231.512 487.161C231.512 489.081 231.838 490.588 232.492 491.681C233.145 492.761 234.045 493.301 235.192 493.301C236.338 493.301 237.232 492.761 237.872 491.681C238.525 490.588 238.852 489.081 238.852 487.161ZM246.324 494.701H244.664V483.041H241.944V482.061C242.824 482.008 243.538 481.781 244.084 481.381C244.631 480.968 244.971 480.408 245.104 479.701H246.324V494.701ZM257.346 494.701H255.666V491.081H248.366V489.621L255.146 479.701H257.346V489.541H259.406V491.081H257.346V494.701ZM255.666 481.541L250.146 489.541H255.666V481.541Z" fill="black"/>
<path d="M285.253 493.121H292.493V494.701H282.953V493.301L287.473 488.621C288.607 487.475 289.36 486.575 289.733 485.921C290.12 485.255 290.313 484.588 290.313 483.921C290.313 483.081 290.04 482.401 289.493 481.881C288.96 481.361 288.26 481.101 287.393 481.101C286.527 481.101 285.807 481.355 285.233 481.861C284.66 482.355 284.307 483.055 284.173 483.961L282.533 483.621C282.76 482.355 283.313 481.361 284.193 480.641C285.087 479.908 286.18 479.541 287.473 479.541C288.833 479.541 289.933 479.941 290.773 480.741C291.613 481.541 292.033 482.588 292.033 483.881C292.033 484.695 291.827 485.481 291.413 486.241C291.013 486.988 290.147 488.048 288.813 489.421L285.253 493.121ZM304.64 487.161C304.64 489.535 304.154 491.415 303.18 492.801C302.207 494.175 300.894 494.861 299.24 494.861C297.587 494.861 296.274 494.175 295.3 492.801C294.327 491.415 293.84 489.535 293.84 487.161C293.84 484.815 294.327 482.961 295.3 481.601C296.274 480.228 297.587 479.541 299.24 479.541C300.894 479.541 302.207 480.228 303.18 481.601C304.154 482.961 304.64 484.815 304.64 487.161ZM302.9 487.161C302.9 485.268 302.574 483.788 301.92 482.721C301.28 481.641 300.387 481.101 299.24 481.101C298.08 481.101 297.174 481.641 296.52 482.721C295.88 483.788 295.56 485.268 295.56 487.161C295.56 489.081 295.887 490.588 296.54 491.681C297.194 492.761 298.094 493.301 299.24 493.301C300.387 493.301 301.28 492.761 301.92 491.681C302.574 490.588 302.9 489.081 302.9 487.161ZM310.373 494.701H308.713V483.041H305.993V482.061C306.873 482.008 307.587 481.781 308.133 481.381C308.68 480.968 309.02 480.408 309.153 479.701H310.373V494.701ZM318.095 484.941C319.521 484.941 320.688 485.401 321.595 486.321C322.515 487.241 322.975 488.415 322.975 489.841C322.975 491.321 322.488 492.528 321.515 493.461C320.541 494.395 319.275 494.861 317.715 494.861C316.381 494.861 315.268 494.528 314.375 493.861C313.495 493.195 312.915 492.248 312.635 491.021L314.295 490.541C314.508 491.435 314.915 492.121 315.515 492.601C316.115 493.068 316.861 493.301 317.755 493.301C318.781 493.301 319.615 492.988 320.255 492.361C320.908 491.721 321.235 490.888 321.235 489.861C321.235 488.848 320.921 488.021 320.295 487.381C319.668 486.741 318.861 486.421 317.875 486.421C317.235 486.421 316.661 486.528 316.155 486.741C315.661 486.955 315.268 487.261 314.975 487.661L313.635 487.241L314.915 479.701H322.375V481.221H316.255L315.475 485.641C315.861 485.415 316.275 485.241 316.715 485.121C317.155 485.001 317.615 484.941 318.095 484.941Z" fill="black"/>
<path d="M349.37 493.121H356.61V494.701H347.07V493.301L351.59 488.621C352.723 487.475 353.477 486.575 353.85 485.921C354.237 485.255 354.43 484.588 354.43 483.921C354.43 483.081 354.157 482.401 353.61 481.881C353.077 481.361 352.377 481.101 351.51 481.101C350.643 481.101 349.923 481.355 349.35 481.861C348.777 482.355 348.423 483.055 348.29 483.961L346.65 483.621C346.877 482.355 347.43 481.361 348.31 480.641C349.203 479.908 350.297 479.541 351.59 479.541C352.95 479.541 354.05 479.941 354.89 480.741C355.73 481.541 356.15 482.588 356.15 483.881C356.15 484.695 355.943 485.481 355.53 486.241C355.13 486.988 354.263 488.048 352.93 489.421L349.37 493.121ZM368.757 487.161C368.757 489.535 368.271 491.415 367.297 492.801C366.324 494.175 365.011 494.861 363.357 494.861C361.704 494.861 360.391 494.175 359.417 492.801C358.444 491.415 357.957 489.535 357.957 487.161C357.957 484.815 358.444 482.961 359.417 481.601C360.391 480.228 361.704 479.541 363.357 479.541C365.011 479.541 366.324 480.228 367.297 481.601C368.271 482.961 368.757 484.815 368.757 487.161ZM367.017 487.161C367.017 485.268 366.691 483.788 366.037 482.721C365.397 481.641 364.504 481.101 363.357 481.101C362.197 481.101 361.291 481.641 360.637 482.721C359.997 483.788 359.677 485.268 359.677 487.161C359.677 489.081 360.004 490.588 360.657 491.681C361.311 492.761 362.211 493.301 363.357 493.301C364.504 493.301 365.397 492.761 366.037 491.681C366.691 490.588 367.017 489.081 367.017 487.161ZM374.49 494.701H372.83V483.041H370.11V482.061C370.99 482.008 371.703 481.781 372.25 481.381C372.797 480.968 373.137 480.408 373.27 479.701H374.49V494.701ZM386.993 489.921C386.993 491.375 386.506 492.561 385.533 493.481C384.559 494.401 383.319 494.861 381.813 494.861C380.346 494.861 379.139 494.421 378.193 493.541C377.259 492.661 376.793 491.528 376.793 490.141C376.793 489.528 376.886 488.921 377.073 488.321C377.273 487.721 377.566 487.135 377.953 486.561L382.473 479.701H384.393L380.553 485.461C380.806 485.381 381.066 485.321 381.333 485.281C381.599 485.228 381.859 485.201 382.113 485.201C383.539 485.201 384.706 485.641 385.613 486.521C386.533 487.401 386.993 488.535 386.993 489.921ZM378.513 490.041C378.513 490.988 378.819 491.768 379.433 492.381C380.059 492.981 380.859 493.281 381.833 493.281C382.833 493.281 383.653 492.968 384.293 492.341C384.933 491.715 385.253 490.908 385.253 489.921C385.253 488.961 384.933 488.175 384.293 487.561C383.666 486.948 382.853 486.641 381.853 486.641C381.386 486.641 380.946 486.721 380.533 486.881C380.119 487.041 379.759 487.275 379.453 487.581C379.146 487.901 378.913 488.268 378.753 488.681C378.593 489.095 378.513 489.548 378.513 490.041Z" fill="black"/>
<path d="M413.946 493.121H421.186V494.701H411.646V493.301L416.166 488.621C417.299 487.475 418.053 486.575 418.426 485.921C418.813 485.255 419.006 484.588 419.006 483.921C419.006 483.081 418.733 482.401 418.186 481.881C417.653 481.361 416.953 481.101 416.086 481.101C415.219 481.101 414.499 481.355 413.926 481.861C413.353 482.355 412.999 483.055 412.866 483.961L411.226 483.621C411.453 482.355 412.006 481.361 412.886 480.641C413.779 479.908 414.873 479.541 416.166 479.541C417.526 479.541 418.626 479.941 419.466 480.741C420.306 481.541 420.726 482.588 420.726 483.881C420.726 484.695 420.519 485.481 420.106 486.241C419.706 486.988 418.839 488.048 417.506 489.421L413.946 493.121ZM433.333 487.161C433.333 489.535 432.847 491.415 431.873 492.801C430.9 494.175 429.587 494.861 427.933 494.861C426.28 494.861 424.967 494.175 423.993 492.801C423.02 491.415 422.533 489.535 422.533 487.161C422.533 484.815 423.02 482.961 423.993 481.601C424.967 480.228 426.28 479.541 427.933 479.541C429.587 479.541 430.9 480.228 431.873 481.601C432.847 482.961 433.333 484.815 433.333 487.161ZM431.593 487.161C431.593 485.268 431.267 483.788 430.613 482.721C429.973 481.641 429.08 481.101 427.933 481.101C426.773 481.101 425.867 481.641 425.213 482.721C424.573 483.788 424.253 485.268 424.253 487.161C424.253 489.081 424.58 490.588 425.233 491.681C425.887 492.761 426.787 493.301 427.933 493.301C429.08 493.301 429.973 492.761 430.613 491.681C431.267 490.588 431.593 489.081 431.593 487.161ZM439.066 494.701H437.406V483.041H434.686V482.061C435.566 482.008 436.279 481.781 436.826 481.381C437.373 480.968 437.713 480.408 437.846 479.701H439.066V494.701ZM443.888 494.701H442.088L448.788 481.241H441.088V479.701H450.648V481.081L443.888 494.701Z" fill="black"/>
<path d="M476.813 493.121H484.053V494.701H474.513V493.301L479.033 488.621C480.166 487.475 480.92 486.575 481.293 485.921C481.68 485.255 481.873 484.588 481.873 483.921C481.873 483.081 481.6 482.401 481.053 481.881C480.52 481.361 479.82 481.101 478.953 481.101C478.086 481.101 477.366 481.355 476.793 481.861C476.22 482.355 475.866 483.055 475.733 483.961L474.093 483.621C474.32 482.355 474.873 481.361 475.753 480.641C476.646 479.908 477.74 479.541 479.033 479.541C480.393 479.541 481.493 479.941 482.333 480.741C483.173 481.541 483.593 482.588 483.593 483.881C483.593 484.695 483.386 485.481 482.973 486.241C482.573 486.988 481.706 488.048 480.373 489.421L476.813 493.121ZM496.2 487.161C496.2 489.535 495.713 491.415 494.74 492.801C493.767 494.175 492.453 494.861 490.8 494.861C489.147 494.861 487.833 494.175 486.86 492.801C485.887 491.415 485.4 489.535 485.4 487.161C485.4 484.815 485.887 482.961 486.86 481.601C487.833 480.228 489.147 479.541 490.8 479.541C492.453 479.541 493.767 480.228 494.74 481.601C495.713 482.961 496.2 484.815 496.2 487.161ZM494.46 487.161C494.46 485.268 494.133 483.788 493.48 482.721C492.84 481.641 491.947 481.101 490.8 481.101C489.64 481.101 488.733 481.641 488.08 482.721C487.44 483.788 487.12 485.268 487.12 487.161C487.12 489.081 487.447 490.588 488.1 491.681C488.753 492.761 489.653 493.301 490.8 493.301C491.947 493.301 492.84 492.761 493.48 491.681C494.133 490.588 494.46 489.081 494.46 487.161ZM501.933 494.701H500.273V483.041H497.553V482.061C498.433 482.008 499.146 481.781 499.693 481.381C500.24 480.968 500.58 480.408 500.713 479.701H501.933V494.701ZM515.114 490.481C515.114 491.788 514.621 492.848 513.634 493.661C512.661 494.461 511.408 494.861 509.874 494.861C508.341 494.861 507.081 494.461 506.094 493.661C505.121 492.848 504.634 491.788 504.634 490.481C504.634 489.548 504.901 488.741 505.434 488.061C505.968 487.368 506.681 486.895 507.574 486.641C506.894 486.415 506.354 486.015 505.954 485.441C505.568 484.868 505.374 484.195 505.374 483.421C505.374 482.261 505.794 481.328 506.634 480.621C507.474 479.901 508.554 479.541 509.874 479.541C511.194 479.541 512.274 479.901 513.114 480.621C513.968 481.328 514.394 482.261 514.394 483.421C514.394 484.181 514.194 484.848 513.794 485.421C513.394 485.995 512.854 486.401 512.174 486.641C513.081 486.895 513.794 487.368 514.314 488.061C514.848 488.741 515.114 489.548 515.114 490.481ZM509.874 486.001C510.714 486.001 511.394 485.775 511.914 485.321C512.448 484.855 512.714 484.255 512.714 483.521C512.714 482.801 512.448 482.215 511.914 481.761C511.381 481.308 510.701 481.081 509.874 481.081C509.048 481.081 508.368 481.308 507.834 481.761C507.314 482.215 507.054 482.801 507.054 483.521C507.054 484.255 507.314 484.855 507.834 485.321C508.368 485.775 509.048 486.001 509.874 486.001ZM509.874 493.281C510.914 493.281 511.761 493.021 512.414 492.501C513.068 491.981 513.394 491.281 513.394 490.401C513.394 489.521 513.068 488.821 512.414 488.301C511.761 487.768 510.914 487.501 509.874 487.501C508.848 487.501 508.008 487.768 507.354 488.301C506.701 488.835 506.374 489.535 506.374 490.401C506.374 491.268 506.694 491.968 507.334 492.501C507.988 493.021 508.834 493.281 509.874 493.281Z" fill="black"/>
<path d="M541.36 493.121H548.6V494.701H539.06V493.301L543.58 488.621C544.713 487.475 545.466 486.575 545.84 485.921C546.226 485.255 546.42 484.588 546.42 483.921C546.42 483.081 546.146 482.401 545.6 481.881C545.066 481.361 544.366 481.101 543.5 481.101C542.633 481.101 541.913 481.355 541.34 481.861C540.766 482.355 540.413 483.055 540.28 483.961L538.64 483.621C538.866 482.355 539.42 481.361 540.3 480.641C541.193 479.908 542.286 479.541 543.58 479.541C544.94 479.541 546.04 479.941 546.88 480.741C547.72 481.541 548.14 482.588 548.14 483.881C548.14 484.695 547.933 485.481 547.52 486.241C547.12 486.988 546.253 488.048 544.92 489.421L541.36 493.121ZM560.747 487.161C560.747 489.535 560.26 491.415 559.287 492.801C558.314 494.175 557 494.861 555.347 494.861C553.694 494.861 552.38 494.175 551.407 492.801C550.434 491.415 549.947 489.535 549.947 487.161C549.947 484.815 550.434 482.961 551.407 481.601C552.38 480.228 553.694 479.541 555.347 479.541C557 479.541 558.314 480.228 559.287 481.601C560.26 482.961 560.747 484.815 560.747 487.161ZM559.007 487.161C559.007 485.268 558.68 483.788 558.027 482.721C557.387 481.641 556.494 481.101 555.347 481.101C554.187 481.101 553.28 481.641 552.627 482.721C551.987 483.788 551.667 485.268 551.667 487.161C551.667 489.081 551.994 490.588 552.647 491.681C553.3 492.761 554.2 493.301 555.347 493.301C556.494 493.301 557.387 492.761 558.027 491.681C558.68 490.588 559.007 489.081 559.007 487.161ZM566.48 494.701H564.82V483.041H562.1V482.061C562.98 482.008 563.693 481.781 564.24 481.381C564.786 480.968 565.126 480.408 565.26 479.701H566.48V494.701ZM568.722 484.481C568.722 483.028 569.209 481.841 570.182 480.921C571.155 480.001 572.395 479.541 573.902 479.541C575.369 479.541 576.569 479.981 577.502 480.861C578.449 481.741 578.922 482.875 578.922 484.261C578.922 484.875 578.822 485.481 578.622 486.081C578.435 486.681 578.149 487.268 577.762 487.841L573.242 494.701H571.322L575.162 488.941C574.909 489.021 574.649 489.088 574.382 489.141C574.115 489.181 573.855 489.201 573.602 489.201C572.175 489.201 571.002 488.761 570.082 487.881C569.175 487.001 568.722 485.868 568.722 484.481ZM577.202 484.361C577.202 483.415 576.889 482.641 576.262 482.041C575.649 481.428 574.855 481.121 573.882 481.121C572.882 481.121 572.062 481.435 571.422 482.061C570.782 482.688 570.462 483.495 570.462 484.481C570.462 485.441 570.775 486.228 571.402 486.841C572.042 487.455 572.862 487.761 573.862 487.761C574.329 487.761 574.769 487.681 575.182 487.521C575.595 487.361 575.955 487.128 576.262 486.821C576.569 486.501 576.802 486.135 576.962 485.721C577.122 485.308 577.202 484.855 577.202 484.361Z" fill="black"/>
<path d="M602.458 493.121H609.698V494.701H600.158V493.301L604.678 488.621C605.812 487.475 606.565 486.575 606.938 485.921C607.325 485.255 607.518 484.588 607.518 483.921C607.518 483.081 607.245 482.401 606.698 481.881C606.165 481.361 605.465 481.101 604.598 481.101C603.732 481.101 603.012 481.355 602.438 481.861C601.865 482.355 601.512 483.055 601.378 483.961L599.738 483.621C599.965 482.355 600.518 481.361 601.398 480.641C602.292 479.908 603.385 479.541 604.678 479.541C606.038 479.541 607.138 479.941 607.978 480.741C608.818 481.541 609.238 482.588 609.238 483.881C609.238 484.695 609.032 485.481 608.618 486.241C608.218 486.988 607.352 488.048 606.018 489.421L602.458 493.121ZM621.846 487.161C621.846 489.535 621.359 491.415 620.386 492.801C619.412 494.175 618.099 494.861 616.446 494.861C614.792 494.861 613.479 494.175 612.506 492.801C611.532 491.415 611.046 489.535 611.046 487.161C611.046 484.815 611.532 482.961 612.506 481.601C613.479 480.228 614.792 479.541 616.446 479.541C618.099 479.541 619.412 480.228 620.386 481.601C621.359 482.961 621.846 484.815 621.846 487.161ZM620.106 487.161C620.106 485.268 619.779 483.788 619.126 482.721C618.486 481.641 617.592 481.101 616.446 481.101C615.286 481.101 614.379 481.641 613.726 482.721C613.086 483.788 612.766 485.268 612.766 487.161C612.766 489.081 613.092 490.588 613.746 491.681C614.399 492.761 615.299 493.301 616.446 493.301C617.592 493.301 618.486 492.761 619.126 491.681C619.779 490.588 620.106 489.081 620.106 487.161ZM625.858 493.121H633.098V494.701H623.558V493.301L628.078 488.621C629.212 487.475 629.965 486.575 630.338 485.921C630.725 485.255 630.918 484.588 630.918 483.921C630.918 483.081 630.645 482.401 630.098 481.881C629.565 481.361 628.865 481.101 627.998 481.101C627.132 481.101 626.412 481.355 625.838 481.861C625.265 482.355 624.912 483.055 624.778 483.961L623.138 483.621C623.365 482.355 623.918 481.361 624.798 480.641C625.692 479.908 626.785 479.541 628.078 479.541C629.438 479.541 630.538 479.941 631.378 480.741C632.218 481.541 632.638 482.588 632.638 483.881C632.638 484.695 632.432 485.481 632.018 486.241C631.618 486.988 630.752 488.048 629.418 489.421L625.858 493.121ZM645.246 487.161C645.246 489.535 644.759 491.415 643.786 492.801C642.812 494.175 641.499 494.861 639.846 494.861C638.192 494.861 636.879 494.175 635.906 492.801C634.932 491.415 634.446 489.535 634.446 487.161C634.446 484.815 634.932 482.961 635.906 481.601C636.879 480.228 638.192 479.541 639.846 479.541C641.499 479.541 642.812 480.228 643.786 481.601C644.759 482.961 645.246 484.815 645.246 487.161ZM643.506 487.161C643.506 485.268 643.179 483.788 642.526 482.721C641.886 481.641 640.992 481.101 639.846 481.101C638.686 481.101 637.779 481.641 637.126 482.721C636.486 483.788 636.166 485.268 636.166 487.161C636.166 489.081 636.492 490.588 637.146 491.681C637.799 492.761 638.699 493.301 639.846 493.301C640.992 493.301 641.886 492.761 642.526 491.681C643.179 490.588 643.506 489.081 643.506 487.161Z" fill="black"/>
<path d="M669.554 493.121H676.794V494.701H667.254V493.301L671.774 488.621C672.907 487.475 673.661 486.575 674.034 485.921C674.421 485.255 674.614 484.588 674.614 483.921C674.614 483.081 674.341 482.401 673.794 481.881C673.261 481.361 672.561 481.101 671.694 481.101C670.827 481.101 670.107 481.355 669.534 481.861C668.961 482.355 668.607 483.055 668.474 483.961L666.834 483.621C667.061 482.355 667.614 481.361 668.494 480.641C669.387 479.908 670.481 479.541 671.774 479.541C673.134 479.541 674.234 479.941 675.074 480.741C675.914 481.541 676.334 482.588 676.334 483.881C676.334 484.695 676.127 485.481 675.714 486.241C675.314 486.988 674.447 488.048 673.114 489.421L669.554 493.121ZM688.941 487.161C688.941 489.535 688.455 491.415 687.481 492.801C686.508 494.175 685.195 494.861 683.541 494.861C681.888 494.861 680.575 494.175 679.601 492.801C678.628 491.415 678.141 489.535 678.141 487.161C678.141 484.815 678.628 482.961 679.601 481.601C680.575 480.228 681.888 479.541 683.541 479.541C685.195 479.541 686.508 480.228 687.481 481.601C688.455 482.961 688.941 484.815 688.941 487.161ZM687.201 487.161C687.201 485.268 686.875 483.788 686.221 482.721C685.581 481.641 684.688 481.101 683.541 481.101C682.381 481.101 681.475 481.641 680.821 482.721C680.181 483.788 679.861 485.268 679.861 487.161C679.861 489.081 680.188 490.588 680.841 491.681C681.495 492.761 682.395 493.301 683.541 493.301C684.688 493.301 685.581 492.761 686.221 491.681C686.875 490.588 687.201 489.081 687.201 487.161ZM692.954 493.121H700.194V494.701H690.654V493.301L695.174 488.621C696.307 487.475 697.061 486.575 697.434 485.921C697.821 485.255 698.014 484.588 698.014 483.921C698.014 483.081 697.741 482.401 697.194 481.881C696.661 481.361 695.961 481.101 695.094 481.101C694.227 481.101 693.507 481.355 692.934 481.861C692.361 482.355 692.007 483.055 691.874 483.961L690.234 483.621C690.461 482.355 691.014 481.361 691.894 480.641C692.787 479.908 693.881 479.541 695.174 479.541C696.534 479.541 697.634 479.941 698.474 480.741C699.314 481.541 699.734 482.588 699.734 483.881C699.734 484.695 699.527 485.481 699.114 486.241C698.714 486.988 697.847 488.048 696.514 489.421L692.954 493.121ZM705.241 494.701H703.581V483.041H700.861V482.061C701.741 482.008 702.455 481.781 703.001 481.381C703.548 480.968 703.888 480.408 704.021 479.701H705.241V494.701Z" fill="black"/>
<path d="M731.591 493.121H738.831V494.701H729.291V493.301L733.811 488.621C734.945 487.475 735.698 486.575 736.071 485.921C736.458 485.255 736.651 484.588 736.651 483.921C736.651 483.081 736.378 482.401 735.831 481.881C735.298 481.361 734.598 481.101 733.731 481.101C732.865 481.101 732.145 481.355 731.571 481.861C730.998 482.355 730.645 483.055 730.511 483.961L728.871 483.621C729.098 482.355 729.651 481.361 730.531 480.641C731.425 479.908 732.518 479.541 733.811 479.541C735.171 479.541 736.271 479.941 737.111 480.741C737.951 481.541 738.371 482.588 738.371 483.881C738.371 484.695 738.165 485.481 737.751 486.241C737.351 486.988 736.485 488.048 735.151 489.421L731.591 493.121ZM750.978 487.161C750.978 489.535 750.492 491.415 749.518 492.801C748.545 494.175 747.232 494.861 745.578 494.861C743.925 494.861 742.612 494.175 741.638 492.801C740.665 491.415 740.178 489.535 740.178 487.161C740.178 484.815 740.665 482.961 741.638 481.601C742.612 480.228 743.925 479.541 745.578 479.541C747.232 479.541 748.545 480.228 749.518 481.601C750.492 482.961 750.978 484.815 750.978 487.161ZM749.238 487.161C749.238 485.268 748.912 483.788 748.258 482.721C747.618 481.641 746.725 481.101 745.578 481.101C744.418 481.101 743.512 481.641 742.858 482.721C742.218 483.788 741.898 485.268 741.898 487.161C741.898 489.081 742.225 490.588 742.878 491.681C743.532 492.761 744.432 493.301 745.578 493.301C746.725 493.301 747.618 492.761 748.258 491.681C748.912 490.588 749.238 489.081 749.238 487.161ZM754.991 493.121H762.231V494.701H752.691V493.301L757.211 488.621C758.345 487.475 759.098 486.575 759.471 485.921C759.858 485.255 760.051 484.588 760.051 483.921C760.051 483.081 759.778 482.401 759.231 481.881C758.698 481.361 757.998 481.101 757.131 481.101C756.265 481.101 755.545 481.355 754.971 481.861C754.398 482.355 754.045 483.055 753.911 483.961L752.271 483.621C752.498 482.355 753.051 481.361 753.931 480.641C754.825 479.908 755.918 479.541 757.211 479.541C758.571 479.541 759.671 479.941 760.511 480.741C761.351 481.541 761.771 482.588 761.771 483.881C761.771 484.695 761.565 485.481 761.151 486.241C760.751 486.988 759.885 488.048 758.551 489.421L754.991 493.121ZM765.558 493.121H772.798V494.701H763.258V493.301L767.778 488.621C768.912 487.475 769.665 486.575 770.038 485.921C770.425 485.255 770.618 484.588 770.618 483.921C770.618 483.081 770.345 482.401 769.798 481.881C769.265 481.361 768.565 481.101 767.698 481.101C766.832 481.101 766.112 481.355 765.538 481.861C764.965 482.355 764.612 483.055 764.478 483.961L762.838 483.621C763.065 482.355 763.618 481.361 764.498 480.641C765.392 479.908 766.485 479.541 767.778 479.541C769.138 479.541 770.238 479.941 771.078 480.741C771.918 481.541 772.338 482.588 772.338 483.881C772.338 484.695 772.132 485.481 771.718 486.241C771.318 486.988 770.452 488.048 769.118 489.421L765.558 493.121Z" fill="black"/>
<path d="M793.941 462.992C794.301 462.632 794.301 462.049 793.941 461.69L788.08 455.829C787.721 455.469 787.138 455.469 786.778 455.829C786.418 456.188 786.418 456.771 786.778 457.131L791.988 462.341L786.778 467.551C786.418 467.91 786.418 468.494 786.778 468.853C787.138 469.213 787.721 469.213 788.08 468.853L793.941 462.992ZM-8.05144e-08 463.262L793.29 463.262L793.29 461.42L8.05144e-08 461.42L-8.05144e-08 463.262Z" fill="black"/>
<path d="M466.451 285.101L465.653 283.831L465.653 283.831L466.451 285.101ZM696.16 9.98854C695.738 9.27537 694.818 9.03894 694.105 9.46046L682.483 16.3295C681.77 16.7511 681.534 17.6709 681.955 18.3841C682.377 19.0972 683.297 19.3337 684.01 18.9121L694.34 12.8063L700.446 23.1368C700.868 23.85 701.788 24.0864 702.501 23.6649C703.214 23.2433 703.45 22.3235 703.029 21.6103L696.16 9.98854ZM0.282227 402.58C105.133 402.58 307.347 386.868 467.249 286.371L465.653 283.831C306.486 383.866 104.979 399.58 0.282227 399.58V402.58ZM467.249 286.371C529.51 247.241 578.117 212.208 615.486 170.055C652.884 127.871 678.973 78.6197 696.321 11.1252L693.416 10.3784C676.171 77.4692 650.287 126.279 613.242 168.065C576.168 209.884 527.863 244.733 465.653 283.831L467.249 286.371Z" fill="#8E4FEE" fill-opacity="0.8"/>
</svg>
