<svg width="340" height="317" viewBox="0 0 340 317" fill="none" xmlns="http://www.w3.org/2000/svg">
<path d="M7.63574 295.831C7.63574 295.413 7.97476 295.074 8.39295 295.074H31.4498C31.868 295.074 32.207 295.413 32.207 295.831V295.831H7.63574V295.831Z" fill="#B7B7B7" fill-opacity="0.34"/>
<path d="M34.7363 295.832C34.7363 295.151 35.2887 294.599 35.97 294.599H58.0739C58.7553 294.599 59.3076 295.151 59.3076 295.832V295.832H34.7363V295.832Z" fill="#B7B7B7" fill-opacity="0.34"/>
<path d="M61.8379 295.832C61.8379 294.955 62.5489 294.244 63.4259 294.244H84.8211C85.6982 294.244 86.4092 294.955 86.4092 295.832V295.832H61.8379V295.832Z" fill="#B7B7B7" fill-opacity="0.34"/>
<path d="M89.2993 295.832C89.2993 293.639 91.0776 291.86 93.2712 291.86H109.899C112.092 291.86 113.871 293.639 113.871 295.832V295.832H89.2993V295.832Z" fill="#B7B7B7" fill-opacity="0.34"/>
<path d="M116.4 295.758C116.4 292.444 119.086 289.758 122.4 289.758H134.971C138.285 289.758 140.971 292.444 140.971 295.758V295.832H116.4V295.758Z" fill="#B7B7B7" fill-opacity="0.34"/>
<path d="M143.5 286.506C143.5 283.192 146.187 280.506 149.5 280.506H162.072C165.385 280.506 168.072 283.192 168.072 286.506V295.832H143.5V286.506Z" fill="#B7B7B7" fill-opacity="0.34"/>
<path d="M170.602 266.039C170.602 262.725 173.288 260.039 176.602 260.039H189.173C192.487 260.039 195.173 262.725 195.173 266.039V295.832H170.602V266.039Z" fill="#B7B7B7" fill-opacity="0.34"/>
<path d="M197.702 231.273C197.702 227.96 200.388 225.273 203.702 225.273H216.273C219.587 225.273 222.273 227.96 222.273 231.273V295.832H197.702V231.273Z" fill="#B7B7B7" fill-opacity="0.34"/>
<path d="M224.803 199.75C224.803 196.437 227.489 193.75 230.803 193.75H243.374C246.688 193.75 249.374 196.437 249.374 199.75V295.833H224.803V199.75Z" fill="#B7B7B7" fill-opacity="0.34"/>
<path d="M252.265 185.575C252.265 182.261 254.951 179.575 258.265 179.575H270.836C274.15 179.575 276.836 182.261 276.836 185.575V295.831H252.265V185.575Z" fill="#B7B7B7" fill-opacity="0.34"/>
<path d="M279.365 124.625C279.365 121.311 282.052 118.625 285.365 118.625H297.937C301.25 118.625 303.937 121.311 303.937 124.625V295.831H279.365V124.625Z" fill="#B7B7B7" fill-opacity="0.34"/>
<path d="M306.466 22.9258C306.466 19.6121 309.152 16.9258 312.466 16.9258H325.037C328.351 16.9258 331.037 19.6121 331.037 22.9258V295.832H306.466V22.9258Z" fill="#B7B7B7" fill-opacity="0.34"/>
<path d="M14.8007 287.289C14.8007 288.729 14.5007 289.865 13.9007 290.697C13.3007 291.521 12.4807 291.933 11.4407 291.933C10.4007 291.933 9.57675 291.521 8.96875 290.697C8.36075 289.865 8.05675 288.729 8.05675 287.289C8.05675 285.865 8.36075 284.745 8.96875 283.929C9.57675 283.105 10.4007 282.693 11.4407 282.693C12.4727 282.693 13.2887 283.105 13.8887 283.929C14.4967 284.745 14.8007 285.865 14.8007 287.289ZM13.1567 287.289C13.1567 286.273 13.0087 285.501 12.7127 284.973C12.4247 284.437 12.0007 284.169 11.4407 284.169C10.8727 284.169 10.4407 284.433 10.1447 284.961C9.85675 285.489 9.71275 286.265 9.71275 287.289C9.71275 288.337 9.85675 289.129 10.1447 289.665C10.4327 290.193 10.8647 290.457 11.4407 290.457C12.0007 290.457 12.4247 290.189 12.7127 289.653C13.0087 289.117 13.1567 288.329 13.1567 287.289ZM17.811 290.961C17.811 291.249 17.715 291.485 17.523 291.669C17.339 291.845 17.095 291.933 16.791 291.933C16.495 291.933 16.251 291.845 16.059 291.669C15.867 291.485 15.771 291.249 15.771 290.961C15.771 290.665 15.867 290.425 16.059 290.241C16.251 290.049 16.495 289.953 16.791 289.953C17.095 289.953 17.339 290.049 17.523 290.241C17.715 290.425 17.811 290.665 17.811 290.961ZM21.0579 290.277H24.7059V291.813H18.7659V290.505L20.5299 288.801C21.4259 287.937 22.0379 287.277 22.3659 286.821C22.7019 286.357 22.8699 285.921 22.8699 285.513C22.8699 285.105 22.7499 284.781 22.5099 284.541C22.2779 284.293 21.9619 284.169 21.5619 284.169C21.1699 284.169 20.8379 284.297 20.5659 284.553C20.2939 284.801 20.1299 285.141 20.0739 285.573L18.4899 285.261C18.6179 284.461 18.9619 283.833 19.5219 283.377C20.0899 282.921 20.7939 282.693 21.6339 282.693C22.4979 282.693 23.1939 282.949 23.7219 283.461C24.2579 283.973 24.5259 284.641 24.5259 285.465C24.5259 286.025 24.3459 286.577 23.9859 287.121C23.6339 287.665 22.9059 288.473 21.8019 289.545L21.0579 290.277ZM28.8317 285.933C29.7038 285.933 30.4038 286.201 30.9318 286.737C31.4678 287.273 31.7358 287.973 31.7358 288.837C31.7358 289.757 31.4398 290.505 30.8478 291.081C30.2558 291.649 29.4758 291.933 28.5078 291.933C27.6678 291.933 26.9597 291.721 26.3837 291.297C25.8157 290.873 25.4717 290.289 25.3517 289.545L26.9597 289.137C26.9997 289.545 27.1597 289.865 27.4397 290.097C27.7197 290.321 28.0757 290.433 28.5078 290.433C28.9798 290.433 29.3598 290.293 29.6478 290.013C29.9438 289.725 30.0918 289.349 30.0918 288.885C30.0918 288.413 29.9478 288.033 29.6597 287.745C29.3718 287.457 28.9958 287.313 28.5317 287.313C28.2277 287.313 27.9557 287.373 27.7157 287.493C27.4837 287.605 27.3077 287.765 27.1877 287.973L25.8197 287.601L26.5637 282.813H31.3277V284.277H27.8717L27.5718 286.197C27.7637 286.109 27.9637 286.045 28.1717 286.005C28.3798 285.957 28.5998 285.933 28.8317 285.933Z" fill="black"/>
<path d="M43.3249 289.208H41.7289V282.752H39.8929V281.768C40.4209 281.736 40.8769 281.576 41.2609 281.288C41.6449 281 41.9009 280.64 42.0289 280.208H43.3249V289.208ZM46.9265 288.356C46.9265 288.644 46.8305 288.88 46.6385 289.064C46.4545 289.24 46.2105 289.328 45.9065 289.328C45.6105 289.328 45.3665 289.24 45.1745 289.064C44.9825 288.88 44.8865 288.644 44.8865 288.356C44.8865 288.06 44.9825 287.82 45.1745 287.636C45.3665 287.444 45.6105 287.348 45.9065 287.348C46.2105 287.348 46.4545 287.444 46.6385 287.636C46.8305 287.82 46.9265 288.06 46.9265 288.356ZM51.0975 283.328C51.9695 283.328 52.6695 283.596 53.1975 284.132C53.7335 284.668 54.0015 285.368 54.0015 286.232C54.0015 287.152 53.7055 287.9 53.1135 288.476C52.5215 289.044 51.7415 289.328 50.7735 289.328C49.9335 289.328 49.2255 289.116 48.6495 288.692C48.0815 288.268 47.7375 287.684 47.6175 286.94L49.2255 286.532C49.2655 286.94 49.4255 287.26 49.7055 287.492C49.9855 287.716 50.3415 287.828 50.7735 287.828C51.2455 287.828 51.6255 287.688 51.9135 287.408C52.2095 287.12 52.3575 286.744 52.3575 286.28C52.3575 285.808 52.2135 285.428 51.9255 285.14C51.6375 284.852 51.2615 284.708 50.7975 284.708C50.4935 284.708 50.2215 284.768 49.9815 284.888C49.7495 285 49.5735 285.16 49.4535 285.368L48.0855 284.996L48.8295 280.208H53.5935V281.672H50.1375L49.8375 283.592C50.0295 283.504 50.2295 283.44 50.4375 283.4C50.6455 283.352 50.8655 283.328 51.0975 283.328Z" fill="black"/>
<path d="M68.378 287.672H72.026V289.208H66.086V287.9L67.85 286.196C68.746 285.332 69.358 284.672 69.686 284.216C70.022 283.752 70.19 283.316 70.19 282.908C70.19 282.5 70.07 282.176 69.83 281.936C69.598 281.688 69.282 281.564 68.882 281.564C68.49 281.564 68.158 281.692 67.886 281.948C67.614 282.196 67.45 282.536 67.394 282.968L65.81 282.656C65.938 281.856 66.282 281.228 66.842 280.772C67.41 280.316 68.114 280.088 68.954 280.088C69.818 280.088 70.514 280.344 71.042 280.856C71.578 281.368 71.846 282.036 71.846 282.86C71.846 283.42 71.666 283.972 71.306 284.516C70.954 285.06 70.226 285.868 69.122 286.94L68.378 287.672ZM74.9519 288.356C74.9519 288.644 74.8559 288.88 74.6639 289.064C74.4799 289.24 74.2359 289.328 73.9319 289.328C73.6359 289.328 73.3919 289.24 73.1999 289.064C73.0079 288.88 72.9119 288.644 72.9119 288.356C72.9119 288.06 73.0079 287.82 73.1999 287.636C73.3919 287.444 73.6359 287.348 73.9319 287.348C74.2359 287.348 74.4799 287.444 74.6639 287.636C74.8559 287.82 74.9519 288.06 74.9519 288.356ZM82.0628 286.304C82.0628 287.2 81.7628 287.928 81.1628 288.488C80.5628 289.048 79.7988 289.328 78.8708 289.328C77.9508 289.328 77.1948 289.056 76.6028 288.512C76.0108 287.96 75.7148 287.248 75.7148 286.376C75.7148 286.016 75.7748 285.656 75.8948 285.296C76.0148 284.928 76.1948 284.56 76.4348 284.192L79.0508 280.208H80.8628L78.6788 283.484C78.7508 283.476 78.8228 283.468 78.8948 283.46C78.9748 283.452 79.0548 283.448 79.1348 283.448C79.9908 283.448 80.6908 283.712 81.2348 284.24C81.7868 284.768 82.0628 285.456 82.0628 286.304ZM77.3468 286.292C77.3468 286.748 77.4868 287.124 77.7668 287.42C78.0548 287.708 78.4228 287.852 78.8708 287.852C79.3268 287.852 79.6988 287.708 79.9868 287.42C80.2748 287.132 80.4188 286.756 80.4188 286.292C80.4188 285.852 80.2748 285.492 79.9868 285.212C79.6988 284.932 79.3308 284.792 78.8828 284.792C78.6908 284.792 78.5028 284.824 78.3188 284.888C78.1348 284.952 77.9748 285.04 77.8388 285.152C77.6788 285.296 77.5548 285.464 77.4668 285.656C77.3868 285.848 77.3468 286.06 77.3468 286.292Z" fill="black"/>
<path d="M100.282 285.583H98.6862V279.127H96.8502V278.143C97.3782 278.111 97.8342 277.951 98.2182 277.663C98.6022 277.375 98.8582 277.015 98.9862 276.583H100.282V285.583ZM104.976 285.583H103.38V279.127H101.544V278.143C102.072 278.111 102.528 277.951 102.912 277.663C103.296 277.375 103.552 277.015 103.68 276.583H104.976V285.583Z" fill="black"/>
<path d="M126.407 282.972H124.811V276.516H122.975V275.532C123.503 275.5 123.959 275.34 124.343 275.052C124.727 274.764 124.983 274.404 125.111 273.972H126.407V282.972ZM129.985 282.972H128.269L131.857 275.424H127.681V273.972H133.597V275.352L129.985 282.972Z" fill="black"/>
<path d="M154.132 274.583H152.56V272.663H148.492V271.295L152.14 265.583H154.132V271.199H155.416V272.663H154.132V274.583ZM152.56 267.527L150.196 271.199H152.56V267.527ZM161.298 274.583H159.726V272.663H155.658V271.295L159.306 265.583H161.298V271.199H162.582V272.663H161.298V274.583ZM159.726 267.527L157.362 271.199H159.726V267.527Z" fill="black"/>
<path d="M175.715 255.24H174.119V248.784H172.283V247.8C172.811 247.768 173.267 247.608 173.651 247.32C174.035 247.032 174.291 246.672 174.419 246.24H175.715V255.24ZM184.141 250.716C184.141 252.156 183.841 253.292 183.241 254.124C182.641 254.948 181.821 255.36 180.781 255.36C179.741 255.36 178.917 254.948 178.309 254.124C177.701 253.292 177.397 252.156 177.397 250.716C177.397 249.292 177.701 248.172 178.309 247.356C178.917 246.532 179.741 246.12 180.781 246.12C181.813 246.12 182.629 246.532 183.229 247.356C183.837 248.172 184.141 249.292 184.141 250.716ZM182.497 250.716C182.497 249.7 182.349 248.928 182.053 248.4C181.765 247.864 181.341 247.596 180.781 247.596C180.213 247.596 179.781 247.86 179.485 248.388C179.197 248.916 179.053 249.692 179.053 250.716C179.053 251.764 179.197 252.556 179.485 253.092C179.773 253.62 180.205 253.884 180.781 253.884C181.341 253.884 181.765 253.616 182.053 253.08C182.349 252.544 182.497 251.756 182.497 250.716ZM191.709 252.624C191.709 253.44 191.405 254.1 190.797 254.604C190.197 255.108 189.425 255.36 188.481 255.36C187.537 255.36 186.765 255.108 186.165 254.604C185.565 254.1 185.265 253.44 185.265 252.624C185.265 252.136 185.385 251.7 185.625 251.316C185.865 250.932 186.209 250.632 186.657 250.416C186.329 250.2 186.077 249.936 185.901 249.624C185.733 249.304 185.649 248.952 185.649 248.568C185.649 247.84 185.913 247.252 186.441 246.804C186.977 246.348 187.657 246.12 188.481 246.12C189.313 246.12 189.993 246.348 190.521 246.804C191.057 247.252 191.325 247.84 191.325 248.568C191.325 248.936 191.237 249.28 191.061 249.6C190.893 249.912 190.649 250.184 190.329 250.416C190.769 250.632 191.109 250.932 191.349 251.316C191.589 251.7 191.709 252.136 191.709 252.624ZM188.481 249.864C188.857 249.864 189.165 249.756 189.405 249.54C189.645 249.316 189.765 249.032 189.765 248.688C189.765 248.352 189.645 248.08 189.405 247.872C189.165 247.656 188.857 247.548 188.481 247.548C188.113 247.548 187.809 247.656 187.569 247.872C187.337 248.08 187.221 248.352 187.221 248.688C187.221 249.032 187.337 249.316 187.569 249.54C187.809 249.756 188.113 249.864 188.481 249.864ZM188.493 253.848C188.949 253.848 189.321 253.728 189.609 253.488C189.905 253.24 190.053 252.916 190.053 252.516C190.053 252.116 189.905 251.792 189.609 251.544C189.321 251.296 188.949 251.172 188.493 251.172C188.029 251.172 187.649 251.296 187.353 251.544C187.065 251.792 186.921 252.116 186.921 252.516C186.921 252.916 187.065 253.24 187.353 253.488C187.649 253.728 188.029 253.848 188.493 253.848Z" fill="black"/>
<path d="M202.874 217.254H206.522V218.79H200.582V217.482L202.346 215.778C203.242 214.914 203.854 214.254 204.182 213.798C204.518 213.334 204.686 212.898 204.686 212.49C204.686 212.082 204.566 211.758 204.326 211.518C204.094 211.27 203.778 211.146 203.378 211.146C202.986 211.146 202.654 211.274 202.382 211.53C202.11 211.778 201.946 212.118 201.89 212.55L200.306 212.238C200.434 211.438 200.778 210.81 201.338 210.354C201.906 209.898 202.61 209.67 203.45 209.67C204.314 209.67 205.01 209.926 205.538 210.438C206.074 210.95 206.342 211.618 206.342 212.442C206.342 213.002 206.162 213.554 205.802 214.098C205.45 214.642 204.722 215.45 203.618 216.522L202.874 217.254ZM210.539 218.79H208.943V212.334H207.107V211.35C207.635 211.318 208.091 211.158 208.475 210.87C208.859 210.582 209.115 210.222 209.243 209.79H210.539V218.79ZM215.341 212.91C216.213 212.91 216.913 213.178 217.441 213.714C217.977 214.25 218.245 214.95 218.245 215.814C218.245 216.734 217.949 217.482 217.357 218.058C216.765 218.626 215.985 218.91 215.017 218.91C214.177 218.91 213.469 218.698 212.893 218.274C212.325 217.85 211.981 217.266 211.861 216.522L213.469 216.114C213.509 216.522 213.669 216.842 213.949 217.074C214.229 217.298 214.585 217.41 215.017 217.41C215.489 217.41 215.869 217.27 216.157 216.99C216.453 216.702 216.601 216.326 216.601 215.862C216.601 215.39 216.457 215.01 216.169 214.722C215.881 214.434 215.505 214.29 215.041 214.29C214.737 214.29 214.465 214.35 214.225 214.47C213.993 214.582 213.817 214.742 213.697 214.95L212.329 214.578L213.073 209.79H217.837V211.254H214.381L214.081 213.174C214.273 213.086 214.473 213.022 214.681 212.982C214.889 212.934 215.109 212.91 215.341 212.91Z" fill="black"/>
<path d="M234.244 183.47C234.244 184.278 233.948 184.934 233.356 185.438C232.764 185.934 232.012 186.182 231.1 186.182C230.228 186.182 229.508 185.958 228.94 185.51C228.372 185.054 228.024 184.418 227.896 183.602L229.504 183.17C229.56 183.65 229.724 184.022 229.996 184.286C230.276 184.542 230.644 184.67 231.1 184.67C231.54 184.67 231.896 184.554 232.168 184.322C232.448 184.09 232.588 183.782 232.588 183.398C232.588 183.038 232.468 182.746 232.228 182.522C231.988 182.298 231.68 182.186 231.304 182.186H230.44V180.698H231.124C231.492 180.698 231.792 180.594 232.024 180.386C232.264 180.178 232.384 179.902 232.384 179.558C232.384 179.214 232.268 178.938 232.036 178.73C231.804 178.514 231.504 178.406 231.136 178.406C230.76 178.406 230.44 178.514 230.176 178.73C229.92 178.938 229.752 179.226 229.672 179.594L228.112 179.234C228.256 178.53 228.604 177.974 229.156 177.566C229.716 177.15 230.4 176.942 231.208 176.942C232.048 176.942 232.724 177.166 233.236 177.614C233.756 178.062 234.016 178.65 234.016 179.378C234.016 179.794 233.92 180.162 233.728 180.482C233.536 180.802 233.24 181.086 232.84 181.334C233.288 181.51 233.632 181.786 233.872 182.162C234.12 182.53 234.244 182.966 234.244 183.47ZM238.342 186.062H236.746V179.606H234.91V178.622C235.438 178.59 235.894 178.43 236.278 178.142C236.662 177.854 236.918 177.494 237.046 177.062H238.342V186.062ZM245.963 183.47C245.963 184.278 245.667 184.934 245.075 185.438C244.483 185.934 243.731 186.182 242.819 186.182C241.947 186.182 241.227 185.958 240.659 185.51C240.091 185.054 239.743 184.418 239.615 183.602L241.223 183.17C241.279 183.65 241.443 184.022 241.715 184.286C241.995 184.542 242.363 184.67 242.819 184.67C243.259 184.67 243.615 184.554 243.887 184.322C244.167 184.09 244.307 183.782 244.307 183.398C244.307 183.038 244.187 182.746 243.947 182.522C243.707 182.298 243.399 182.186 243.023 182.186H242.159V180.698H242.843C243.211 180.698 243.511 180.594 243.743 180.386C243.983 180.178 244.103 179.902 244.103 179.558C244.103 179.214 243.987 178.938 243.755 178.73C243.523 178.514 243.223 178.406 242.855 178.406C242.479 178.406 242.159 178.514 241.895 178.73C241.639 178.938 241.471 179.226 241.391 179.594L239.831 179.234C239.975 178.53 240.323 177.974 240.875 177.566C241.435 177.15 242.119 176.942 242.927 176.942C243.767 176.942 244.443 177.166 244.955 177.614C245.475 178.062 245.735 178.65 245.735 179.378C245.735 179.794 245.639 180.162 245.447 180.482C245.255 180.802 244.959 181.086 244.559 181.334C245.007 181.51 245.351 181.786 245.591 182.162C245.839 182.53 245.963 182.966 245.963 183.47Z" fill="black"/>
<path d="M260.604 169.911C260.604 170.719 260.308 171.375 259.716 171.879C259.124 172.375 258.372 172.623 257.46 172.623C256.588 172.623 255.868 172.399 255.3 171.951C254.732 171.495 254.384 170.859 254.256 170.043L255.864 169.611C255.92 170.091 256.084 170.463 256.356 170.727C256.636 170.983 257.004 171.111 257.46 171.111C257.9 171.111 258.256 170.995 258.528 170.763C258.808 170.531 258.948 170.223 258.948 169.839C258.948 169.479 258.828 169.187 258.588 168.963C258.348 168.739 258.04 168.627 257.664 168.627H256.8V167.139H257.484C257.852 167.139 258.152 167.035 258.384 166.827C258.624 166.619 258.744 166.343 258.744 165.999C258.744 165.655 258.628 165.379 258.396 165.171C258.164 164.955 257.864 164.847 257.496 164.847C257.12 164.847 256.8 164.955 256.536 165.171C256.28 165.379 256.112 165.667 256.032 166.035L254.472 165.675C254.616 164.971 254.964 164.415 255.516 164.007C256.076 163.591 256.76 163.383 257.568 163.383C258.408 163.383 259.084 163.607 259.596 164.055C260.116 164.503 260.376 165.091 260.376 165.819C260.376 166.235 260.28 166.603 260.088 166.923C259.896 167.243 259.6 167.527 259.2 167.775C259.648 167.951 259.992 168.227 260.232 168.603C260.48 168.971 260.604 169.407 260.604 169.911ZM264.81 166.623C265.682 166.623 266.382 166.891 266.91 167.427C267.446 167.963 267.714 168.663 267.714 169.527C267.714 170.447 267.418 171.195 266.826 171.771C266.234 172.339 265.454 172.623 264.486 172.623C263.646 172.623 262.938 172.411 262.362 171.987C261.794 171.563 261.45 170.979 261.33 170.235L262.938 169.827C262.978 170.235 263.138 170.555 263.418 170.787C263.698 171.011 264.054 171.123 264.486 171.123C264.958 171.123 265.338 170.983 265.626 170.703C265.922 170.415 266.07 170.039 266.07 169.575C266.07 169.103 265.926 168.723 265.638 168.435C265.35 168.147 264.974 168.003 264.51 168.003C264.206 168.003 263.934 168.063 263.694 168.183C263.462 168.295 263.286 168.455 263.166 168.663L261.798 168.291L262.542 163.503H267.306V164.967H263.85L263.55 166.887C263.742 166.799 263.942 166.735 264.15 166.695C264.358 166.647 264.578 166.623 264.81 166.623ZM274.729 169.599C274.729 170.495 274.429 171.223 273.829 171.783C273.229 172.343 272.465 172.623 271.537 172.623C270.617 172.623 269.861 172.351 269.269 171.807C268.677 171.255 268.381 170.543 268.381 169.671C268.381 169.311 268.441 168.951 268.561 168.591C268.681 168.223 268.861 167.855 269.101 167.487L271.717 163.503H273.529L271.345 166.779C271.417 166.771 271.489 166.763 271.561 166.755C271.641 166.747 271.721 166.743 271.801 166.743C272.657 166.743 273.357 167.007 273.901 167.535C274.453 168.063 274.729 168.751 274.729 169.599ZM270.013 169.587C270.013 170.043 270.153 170.419 270.433 170.715C270.721 171.003 271.089 171.147 271.537 171.147C271.993 171.147 272.365 171.003 272.653 170.715C272.941 170.427 273.085 170.051 273.085 169.587C273.085 169.147 272.941 168.787 272.653 168.507C272.365 168.227 271.997 168.087 271.549 168.087C271.357 168.087 271.169 168.119 270.985 168.183C270.801 168.247 270.641 168.335 270.505 168.447C270.345 168.591 270.221 168.759 270.133 168.951C270.053 169.143 270.013 169.355 270.013 169.587Z" fill="black"/>
<path d="M283.879 105.153C284.751 105.153 285.451 105.421 285.979 105.957C286.515 106.493 286.783 107.193 286.783 108.057C286.783 108.977 286.487 109.725 285.895 110.301C285.303 110.869 284.523 111.153 283.555 111.153C282.715 111.153 282.007 110.941 281.431 110.517C280.863 110.093 280.519 109.509 280.399 108.765L282.007 108.357C282.047 108.765 282.207 109.085 282.487 109.317C282.767 109.541 283.123 109.653 283.555 109.653C284.027 109.653 284.407 109.513 284.695 109.233C284.991 108.945 285.139 108.569 285.139 108.105C285.139 107.633 284.995 107.253 284.707 106.965C284.419 106.677 284.043 106.533 283.579 106.533C283.275 106.533 283.003 106.593 282.763 106.713C282.531 106.825 282.355 106.985 282.235 107.193L280.867 106.821L281.611 102.033H286.375V103.497H282.919L282.619 105.417C282.811 105.329 283.011 105.265 283.219 105.225C283.427 105.177 283.647 105.153 283.879 105.153ZM292.91 111.033H291.338V109.113H287.27V107.745L290.918 102.033H292.91V107.649H294.194V109.113H292.91V111.033ZM291.338 103.977L288.974 107.649H291.338V103.977ZM300.076 111.033H298.504V109.113H294.436V107.745L298.084 102.033H300.076V107.649H301.36V109.113H300.076V111.033ZM298.504 103.977L296.14 107.649H298.504V103.977Z" fill="black"/>
<path d="M315.892 8.54904C315.892 9.36504 315.588 10.025 314.98 10.529C314.38 11.033 313.608 11.285 312.664 11.285C311.72 11.285 310.948 11.033 310.348 10.529C309.748 10.025 309.448 9.36504 309.448 8.54904C309.448 8.06104 309.568 7.62504 309.808 7.24104C310.048 6.85704 310.392 6.55704 310.84 6.34104C310.512 6.12504 310.26 5.86104 310.084 5.54904C309.916 5.22904 309.832 4.87704 309.832 4.49304C309.832 3.76504 310.096 3.17704 310.624 2.72904C311.16 2.27304 311.84 2.04504 312.664 2.04504C313.496 2.04504 314.176 2.27304 314.704 2.72904C315.24 3.17704 315.508 3.76504 315.508 4.49304C315.508 4.86104 315.42 5.20504 315.244 5.52504C315.076 5.83704 314.832 6.10904 314.512 6.34104C314.952 6.55704 315.292 6.85704 315.532 7.24104C315.772 7.62504 315.892 8.06104 315.892 8.54904ZM312.664 5.78904C313.04 5.78904 313.348 5.68104 313.588 5.46504C313.828 5.24104 313.948 4.95704 313.948 4.61304C313.948 4.27704 313.828 4.00504 313.588 3.79704C313.348 3.58104 313.04 3.47304 312.664 3.47304C312.296 3.47304 311.992 3.58104 311.752 3.79704C311.52 4.00504 311.404 4.27704 311.404 4.61304C311.404 4.95704 311.52 5.24104 311.752 5.46504C311.992 5.68104 312.296 5.78904 312.664 5.78904ZM312.676 9.77304C313.132 9.77304 313.504 9.65304 313.792 9.41304C314.088 9.16504 314.236 8.84104 314.236 8.44104C314.236 8.04104 314.088 7.71704 313.792 7.46904C313.504 7.22104 313.132 7.09704 312.676 7.09704C312.212 7.09704 311.832 7.22104 311.536 7.46904C311.248 7.71704 311.104 8.04104 311.104 8.44104C311.104 8.84104 311.248 9.16504 311.536 9.41304C311.832 9.65304 312.212 9.77304 312.676 9.77304ZM322.943 8.57304C322.943 9.38104 322.647 10.037 322.055 10.541C321.463 11.037 320.711 11.285 319.799 11.285C318.927 11.285 318.207 11.061 317.639 10.613C317.071 10.157 316.723 9.52104 316.595 8.70504L318.203 8.27304C318.259 8.75304 318.423 9.12504 318.695 9.38904C318.975 9.64504 319.343 9.77304 319.799 9.77304C320.239 9.77304 320.595 9.65704 320.867 9.42504C321.147 9.19304 321.287 8.88504 321.287 8.50104C321.287 8.14104 321.167 7.84904 320.927 7.62504C320.687 7.40104 320.379 7.28904 320.003 7.28904H319.139V5.80104H319.823C320.191 5.80104 320.491 5.69704 320.723 5.48904C320.963 5.28104 321.083 5.00504 321.083 4.66104C321.083 4.31704 320.967 4.04104 320.735 3.83304C320.503 3.61704 320.203 3.50904 319.835 3.50904C319.459 3.50904 319.139 3.61704 318.875 3.83304C318.619 4.04104 318.451 4.32904 318.371 4.69704L316.811 4.33704C316.955 3.63304 317.303 3.07704 317.855 2.66904C318.415 2.25304 319.099 2.04504 319.907 2.04504C320.747 2.04504 321.423 2.26904 321.935 2.71704C322.455 3.16504 322.715 3.75304 322.715 4.48104C322.715 4.89704 322.619 5.26504 322.427 5.58504C322.235 5.90504 321.939 6.18904 321.539 6.43704C321.987 6.61304 322.331 6.88904 322.571 7.26504C322.819 7.63304 322.943 8.06904 322.943 8.57304ZM327.04 11.165H325.444V4.70904H323.608V3.72504C324.136 3.69304 324.592 3.53304 324.976 3.24504C325.36 2.95704 325.616 2.59704 325.744 2.16504H327.04V11.165Z" fill="black"/>
<path d="M12.0262 313.839H15.6462V314.629H10.8762V313.929L13.1362 311.589C13.7029 311.016 14.0796 310.566 14.2662 310.239C14.4596 309.906 14.5562 309.573 14.5562 309.239C14.5562 308.819 14.4196 308.479 14.1462 308.219C13.8796 307.959 13.5296 307.829 13.0962 307.829C12.6629 307.829 12.3029 307.956 12.0162 308.209C11.7296 308.456 11.5529 308.806 11.4862 309.259L10.6662 309.089C10.7796 308.456 11.0562 307.959 11.4962 307.599C11.9429 307.233 12.4896 307.049 13.1362 307.049C13.8162 307.049 14.3662 307.249 14.7862 307.649C15.2062 308.049 15.4162 308.573 15.4162 309.219C15.4162 309.626 15.3129 310.019 15.1062 310.399C14.9062 310.773 14.4729 311.303 13.8062 311.989L12.0262 313.839ZM21.7198 310.859C21.7198 312.046 21.4765 312.986 20.9898 313.679C20.5032 314.366 19.8465 314.709 19.0198 314.709C18.1932 314.709 17.5365 314.366 17.0498 313.679C16.5632 312.986 16.3198 312.046 16.3198 310.859C16.3198 309.686 16.5632 308.759 17.0498 308.079C17.5365 307.393 18.1932 307.049 19.0198 307.049C19.8465 307.049 20.5032 307.393 20.9898 308.079C21.4765 308.759 21.7198 309.686 21.7198 310.859ZM20.8498 310.859C20.8498 309.913 20.6865 309.173 20.3598 308.639C20.0398 308.099 19.5932 307.829 19.0198 307.829C18.4398 307.829 17.9865 308.099 17.6598 308.639C17.3398 309.173 17.1798 309.913 17.1798 310.859C17.1798 311.819 17.3432 312.573 17.6698 313.119C17.9965 313.659 18.4465 313.929 19.0198 313.929C19.5932 313.929 20.0398 313.659 20.3598 313.119C20.6865 312.573 20.8498 311.819 20.8498 310.859ZM24.5862 314.629H23.7562V308.799H22.3962V308.309C22.8362 308.283 23.1929 308.169 23.4662 307.969C23.7396 307.763 23.9096 307.483 23.9762 307.129H24.5862V314.629ZM27.9069 314.629H27.0769V308.799H25.7169V308.309C26.1569 308.283 26.5136 308.169 26.7869 307.969C27.0603 307.763 27.2303 307.483 27.2969 307.129H27.9069V314.629Z" fill="black"/>
<path d="M38.2122 313.839H41.8322V314.629H37.0622V313.929L39.3222 311.589C39.8889 311.016 40.2656 310.566 40.4522 310.239C40.6456 309.906 40.7422 309.573 40.7422 309.239C40.7422 308.819 40.6056 308.479 40.3322 308.219C40.0656 307.959 39.7156 307.829 39.2822 307.829C38.8489 307.829 38.4889 307.956 38.2022 308.209C37.9156 308.456 37.7389 308.806 37.6722 309.259L36.8522 309.089C36.9656 308.456 37.2422 307.959 37.6822 307.599C38.1289 307.233 38.6756 307.049 39.3222 307.049C40.0022 307.049 40.5522 307.249 40.9722 307.649C41.3922 308.049 41.6022 308.573 41.6022 309.219C41.6022 309.626 41.4989 310.019 41.2922 310.399C41.0922 310.773 40.6589 311.303 39.9922 311.989L38.2122 313.839ZM47.9058 310.859C47.9058 312.046 47.6625 312.986 47.1758 313.679C46.6892 314.366 46.0325 314.709 45.2058 314.709C44.3792 314.709 43.7225 314.366 43.2358 313.679C42.7492 312.986 42.5058 312.046 42.5058 310.859C42.5058 309.686 42.7492 308.759 43.2358 308.079C43.7225 307.393 44.3792 307.049 45.2058 307.049C46.0325 307.049 46.6892 307.393 47.1758 308.079C47.6625 308.759 47.9058 309.686 47.9058 310.859ZM47.0358 310.859C47.0358 309.913 46.8725 309.173 46.5458 308.639C46.2258 308.099 45.7792 307.829 45.2058 307.829C44.6258 307.829 44.1725 308.099 43.8458 308.639C43.5258 309.173 43.3658 309.913 43.3658 310.859C43.3658 311.819 43.5292 312.573 43.8558 313.119C44.1825 313.659 44.6325 313.929 45.2058 313.929C45.7792 313.929 46.2258 313.659 46.5458 313.119C46.8725 312.573 47.0358 311.819 47.0358 310.859ZM50.7722 314.629H49.9422V308.799H48.5822V308.309C49.0222 308.283 49.3789 308.169 49.6522 307.969C49.9256 307.763 50.0956 307.483 50.1622 307.129H50.7722V314.629ZM53.2329 313.839H56.8529V314.629H52.0829V313.929L54.3429 311.589C54.9096 311.016 55.2863 310.566 55.4729 310.239C55.6663 309.906 55.7629 309.573 55.7629 309.239C55.7629 308.819 55.6263 308.479 55.3529 308.219C55.0863 307.959 54.7363 307.829 54.3029 307.829C53.8696 307.829 53.5096 307.956 53.2229 308.209C52.9363 308.456 52.7596 308.806 52.6929 309.259L51.8729 309.089C51.9863 308.456 52.2629 307.959 52.7029 307.599C53.1496 307.233 53.6963 307.049 54.3429 307.049C55.0229 307.049 55.5729 307.249 55.9929 307.649C56.4129 308.049 56.6229 308.573 56.6229 309.219C56.6229 309.626 56.5196 310.019 56.3129 310.399C56.1129 310.773 55.6796 311.303 55.0129 311.989L53.2329 313.839Z" fill="black"/>
<path d="M64.6512 313.839H68.2712V314.629H63.5012V313.929L65.7612 311.589C66.3278 311.016 66.7045 310.566 66.8912 310.239C67.0845 309.906 67.1812 309.573 67.1812 309.239C67.1812 308.819 67.0445 308.479 66.7712 308.219C66.5045 307.959 66.1545 307.829 65.7212 307.829C65.2878 307.829 64.9278 307.956 64.6412 308.209C64.3545 308.456 64.1778 308.806 64.1112 309.259L63.2912 309.089C63.4045 308.456 63.6812 307.959 64.1212 307.599C64.5678 307.233 65.1145 307.049 65.7612 307.049C66.4412 307.049 66.9912 307.249 67.4112 307.649C67.8312 308.049 68.0412 308.573 68.0412 309.219C68.0412 309.626 67.9378 310.019 67.7312 310.399C67.5312 310.773 67.0978 311.303 66.4312 311.989L64.6512 313.839ZM74.3448 310.859C74.3448 312.046 74.1014 312.986 73.6148 313.679C73.1281 314.366 72.4714 314.709 71.6448 314.709C70.8181 314.709 70.1614 314.366 69.6748 313.679C69.1881 312.986 68.9448 312.046 68.9448 310.859C68.9448 309.686 69.1881 308.759 69.6748 308.079C70.1614 307.393 70.8181 307.049 71.6448 307.049C72.4714 307.049 73.1281 307.393 73.6148 308.079C74.1014 308.759 74.3448 309.686 74.3448 310.859ZM73.4748 310.859C73.4748 309.913 73.3114 309.173 72.9848 308.639C72.6648 308.099 72.2181 307.829 71.6448 307.829C71.0648 307.829 70.6114 308.099 70.2848 308.639C69.9648 309.173 69.8048 309.913 69.8048 310.859C69.8048 311.819 69.9681 312.573 70.2948 313.119C70.6214 313.659 71.0714 313.929 71.6448 313.929C72.2181 313.929 72.6648 313.659 72.9848 313.119C73.3114 312.573 73.4748 311.819 73.4748 310.859ZM77.2112 314.629H76.3812V308.799H75.0212V308.309C75.4612 308.283 75.8178 308.169 76.0912 307.969C76.3645 307.763 76.5345 307.483 76.6012 307.129H77.2112V314.629ZM83.4619 312.499C83.4619 313.153 83.2219 313.686 82.7419 314.099C82.2685 314.506 81.6652 314.709 80.9319 314.709C80.2319 314.709 79.6585 314.529 79.2119 314.169C78.7652 313.809 78.4819 313.289 78.3619 312.609L79.1919 312.399C79.2785 312.899 79.4685 313.279 79.7619 313.539C80.0619 313.799 80.4519 313.929 80.9319 313.929C81.4319 313.929 81.8319 313.799 82.1319 313.539C82.4385 313.279 82.5919 312.926 82.5919 312.479C82.5919 312.046 82.4585 311.713 82.1919 311.479C81.9319 311.246 81.5585 311.129 81.0719 311.129H80.3519V310.359H81.0019C81.4419 310.359 81.7852 310.249 82.0319 310.029C82.2785 309.803 82.4019 309.489 82.4019 309.089C82.4019 308.696 82.2719 308.386 82.0119 308.159C81.7585 307.933 81.4119 307.819 80.9719 307.819C80.5652 307.819 80.2219 307.929 79.9419 308.149C79.6619 308.369 79.4819 308.683 79.4019 309.089L78.5919 308.899C78.7252 308.319 79.0085 307.866 79.4419 307.539C79.8752 307.213 80.3952 307.049 81.0019 307.049C81.6819 307.049 82.2285 307.229 82.6419 307.589C83.0552 307.949 83.2619 308.429 83.2619 309.029C83.2619 309.389 83.1685 309.713 82.9819 309.999C82.8019 310.279 82.5385 310.509 82.1919 310.689C82.5985 310.823 82.9119 311.049 83.1319 311.369C83.3519 311.683 83.4619 312.059 83.4619 312.499Z" fill="black"/>
<path d="M91.8494 313.839H95.4694V314.629H90.6994V313.929L92.9594 311.589C93.5261 311.016 93.9028 310.566 94.0894 310.239C94.2828 309.906 94.3794 309.573 94.3794 309.239C94.3794 308.819 94.2428 308.479 93.9694 308.219C93.7028 307.959 93.3528 307.829 92.9194 307.829C92.4861 307.829 92.1261 307.956 91.8394 308.209C91.5528 308.456 91.3761 308.806 91.3094 309.259L90.4894 309.089C90.6028 308.456 90.8794 307.959 91.3194 307.599C91.7661 307.233 92.3128 307.049 92.9594 307.049C93.6394 307.049 94.1894 307.249 94.6094 307.649C95.0294 308.049 95.2394 308.573 95.2394 309.219C95.2394 309.626 95.1361 310.019 94.9294 310.399C94.7294 310.773 94.2961 311.303 93.6294 311.989L91.8494 313.839ZM101.543 310.859C101.543 312.046 101.3 312.986 100.813 313.679C100.326 314.366 99.6697 314.709 98.843 314.709C98.0163 314.709 97.3597 314.366 96.873 313.679C96.3863 312.986 96.143 312.046 96.143 310.859C96.143 309.686 96.3863 308.759 96.873 308.079C97.3597 307.393 98.0163 307.049 98.843 307.049C99.6697 307.049 100.326 307.393 100.813 308.079C101.3 308.759 101.543 309.686 101.543 310.859ZM100.673 310.859C100.673 309.913 100.51 309.173 100.183 308.639C99.863 308.099 99.4163 307.829 98.843 307.829C98.263 307.829 97.8097 308.099 97.483 308.639C97.163 309.173 97.003 309.913 97.003 310.859C97.003 311.819 97.1663 312.573 97.493 313.119C97.8197 313.659 98.2697 313.929 98.843 313.929C99.4163 313.929 99.863 313.659 100.183 313.119C100.51 312.573 100.673 311.819 100.673 310.859ZM104.409 314.629H103.579V308.799H102.219V308.309C102.659 308.283 103.016 308.169 103.289 307.969C103.563 307.763 103.733 307.483 103.799 307.129H104.409V314.629ZM109.92 314.629H109.08V312.819H105.43V312.089L108.82 307.129H109.92V312.049H110.95V312.819H109.92V314.629ZM109.08 308.049L106.32 312.049H109.08V308.049Z" fill="black"/>
<path d="M119.042 313.839H122.662V314.629H117.892V313.929L120.152 311.589C120.718 311.016 121.095 310.566 121.282 310.239C121.475 309.906 121.572 309.573 121.572 309.239C121.572 308.819 121.435 308.479 121.162 308.219C120.895 307.959 120.545 307.829 120.112 307.829C119.678 307.829 119.318 307.956 119.032 308.209C118.745 308.456 118.568 308.806 118.502 309.259L117.682 309.089C117.795 308.456 118.072 307.959 118.512 307.599C118.958 307.233 119.505 307.049 120.152 307.049C120.832 307.049 121.382 307.249 121.802 307.649C122.222 308.049 122.432 308.573 122.432 309.219C122.432 309.626 122.328 310.019 122.122 310.399C121.922 310.773 121.488 311.303 120.822 311.989L119.042 313.839ZM128.735 310.859C128.735 312.046 128.492 312.986 128.005 313.679C127.519 314.366 126.862 314.709 126.035 314.709C125.209 314.709 124.552 314.366 124.065 313.679C123.579 312.986 123.335 312.046 123.335 310.859C123.335 309.686 123.579 308.759 124.065 308.079C124.552 307.393 125.209 307.049 126.035 307.049C126.862 307.049 127.519 307.393 128.005 308.079C128.492 308.759 128.735 309.686 128.735 310.859ZM127.865 310.859C127.865 309.913 127.702 309.173 127.375 308.639C127.055 308.099 126.609 307.829 126.035 307.829C125.455 307.829 125.002 308.099 124.675 308.639C124.355 309.173 124.195 309.913 124.195 310.859C124.195 311.819 124.359 312.573 124.685 313.119C125.012 313.659 125.462 313.929 126.035 313.929C126.609 313.929 127.055 313.659 127.375 313.119C127.702 312.573 127.865 311.819 127.865 310.859ZM131.602 314.629H130.772V308.799H129.412V308.309C129.852 308.283 130.208 308.169 130.482 307.969C130.755 307.763 130.925 307.483 130.992 307.129H131.602V314.629ZM135.463 309.749C136.176 309.749 136.759 309.979 137.213 310.439C137.673 310.899 137.903 311.486 137.903 312.199C137.903 312.939 137.659 313.543 137.173 314.009C136.686 314.476 136.053 314.709 135.273 314.709C134.606 314.709 134.049 314.543 133.603 314.209C133.163 313.876 132.873 313.403 132.733 312.789L133.563 312.549C133.669 312.996 133.873 313.339 134.173 313.579C134.473 313.813 134.846 313.929 135.293 313.929C135.806 313.929 136.223 313.773 136.543 313.459C136.869 313.139 137.033 312.723 137.033 312.209C137.033 311.703 136.876 311.289 136.563 310.969C136.249 310.649 135.846 310.489 135.353 310.489C135.033 310.489 134.746 310.543 134.493 310.649C134.246 310.756 134.049 310.909 133.903 311.109L133.233 310.899L133.873 307.129H137.603V307.889H134.543L134.153 310.099C134.346 309.986 134.553 309.899 134.773 309.839C134.993 309.779 135.223 309.749 135.463 309.749Z" fill="black"/>
<path d="M146.793 313.839H150.413V314.629H145.643V313.929L147.903 311.589C148.47 311.016 148.847 310.566 149.033 310.239C149.227 309.906 149.323 309.573 149.323 309.239C149.323 308.819 149.187 308.479 148.913 308.219C148.647 307.959 148.297 307.829 147.863 307.829C147.43 307.829 147.07 307.956 146.783 308.209C146.497 308.456 146.32 308.806 146.253 309.259L145.433 309.089C145.547 308.456 145.823 307.959 146.263 307.599C146.71 307.233 147.257 307.049 147.903 307.049C148.583 307.049 149.133 307.249 149.553 307.649C149.973 308.049 150.183 308.573 150.183 309.219C150.183 309.626 150.08 310.019 149.873 310.399C149.673 310.773 149.24 311.303 148.573 311.989L146.793 313.839ZM156.487 310.859C156.487 312.046 156.244 312.986 155.757 313.679C155.27 314.366 154.614 314.709 153.787 314.709C152.96 314.709 152.304 314.366 151.817 313.679C151.33 312.986 151.087 312.046 151.087 310.859C151.087 309.686 151.33 308.759 151.817 308.079C152.304 307.393 152.96 307.049 153.787 307.049C154.614 307.049 155.27 307.393 155.757 308.079C156.244 308.759 156.487 309.686 156.487 310.859ZM155.617 310.859C155.617 309.913 155.454 309.173 155.127 308.639C154.807 308.099 154.36 307.829 153.787 307.829C153.207 307.829 152.754 308.099 152.427 308.639C152.107 309.173 151.947 309.913 151.947 310.859C151.947 311.819 152.11 312.573 152.437 313.119C152.764 313.659 153.214 313.929 153.787 313.929C154.36 313.929 154.807 313.659 155.127 313.119C155.454 312.573 155.617 311.819 155.617 310.859ZM159.353 314.629H158.523V308.799H157.163V308.309C157.603 308.283 157.96 308.169 158.233 307.969C158.507 307.763 158.677 307.483 158.743 307.129H159.353V314.629ZM165.605 312.239C165.605 312.966 165.361 313.559 164.875 314.019C164.388 314.479 163.768 314.709 163.015 314.709C162.281 314.709 161.678 314.489 161.205 314.049C160.738 313.609 160.505 313.043 160.505 312.349C160.505 312.043 160.551 311.739 160.645 311.439C160.745 311.139 160.891 310.846 161.085 310.559L163.345 307.129H164.305L162.385 310.009C162.511 309.969 162.641 309.939 162.775 309.919C162.908 309.893 163.038 309.879 163.165 309.879C163.878 309.879 164.461 310.099 164.915 310.539C165.375 310.979 165.605 311.546 165.605 312.239ZM161.365 312.299C161.365 312.773 161.518 313.163 161.825 313.469C162.138 313.769 162.538 313.919 163.025 313.919C163.525 313.919 163.935 313.763 164.255 313.449C164.575 313.136 164.735 312.733 164.735 312.239C164.735 311.759 164.575 311.366 164.255 311.059C163.941 310.753 163.535 310.599 163.035 310.599C162.801 310.599 162.581 310.639 162.375 310.719C162.168 310.799 161.988 310.916 161.835 311.069C161.681 311.229 161.565 311.413 161.485 311.619C161.405 311.826 161.365 312.053 161.365 312.299Z" fill="black"/>
<path d="M174.25 313.839H177.87V314.629H173.1V313.929L175.36 311.589C175.926 311.016 176.303 310.566 176.49 310.239C176.683 309.906 176.78 309.573 176.78 309.239C176.78 308.819 176.643 308.479 176.37 308.219C176.103 307.959 175.753 307.829 175.32 307.829C174.886 307.829 174.526 307.956 174.24 308.209C173.953 308.456 173.776 308.806 173.71 309.259L172.89 309.089C173.003 308.456 173.28 307.959 173.72 307.599C174.166 307.233 174.713 307.049 175.36 307.049C176.04 307.049 176.59 307.249 177.01 307.649C177.43 308.049 177.64 308.573 177.64 309.219C177.64 309.626 177.536 310.019 177.33 310.399C177.13 310.773 176.696 311.303 176.03 311.989L174.25 313.839ZM183.943 310.859C183.943 312.046 183.7 312.986 183.213 313.679C182.727 314.366 182.07 314.709 181.243 314.709C180.417 314.709 179.76 314.366 179.273 313.679C178.787 312.986 178.543 312.046 178.543 310.859C178.543 309.686 178.787 308.759 179.273 308.079C179.76 307.393 180.417 307.049 181.243 307.049C182.07 307.049 182.727 307.393 183.213 308.079C183.7 308.759 183.943 309.686 183.943 310.859ZM183.073 310.859C183.073 309.913 182.91 309.173 182.583 308.639C182.263 308.099 181.817 307.829 181.243 307.829C180.663 307.829 180.21 308.099 179.883 308.639C179.563 309.173 179.403 309.913 179.403 310.859C179.403 311.819 179.567 312.573 179.893 313.119C180.22 313.659 180.67 313.929 181.243 313.929C181.817 313.929 182.263 313.659 182.583 313.119C182.91 312.573 183.073 311.819 183.073 310.859ZM186.81 314.629H185.98V308.799H184.62V308.309C185.06 308.283 185.416 308.169 185.69 307.969C185.963 307.763 186.133 307.483 186.2 307.129H186.81V314.629ZM189.221 314.629H188.321L191.671 307.899H187.821V307.129H192.601V307.819L189.221 314.629Z" fill="black"/>
<path d="M200.327 313.839H203.947V314.629H199.177V313.929L201.437 311.589C202.004 311.016 202.381 310.566 202.567 310.239C202.761 309.906 202.857 309.573 202.857 309.239C202.857 308.819 202.721 308.479 202.447 308.219C202.181 307.959 201.831 307.829 201.397 307.829C200.964 307.829 200.604 307.956 200.317 308.209C200.031 308.456 199.854 308.806 199.787 309.259L198.967 309.089C199.081 308.456 199.357 307.959 199.797 307.599C200.244 307.233 200.791 307.049 201.437 307.049C202.117 307.049 202.667 307.249 203.087 307.649C203.507 308.049 203.717 308.573 203.717 309.219C203.717 309.626 203.614 310.019 203.407 310.399C203.207 310.773 202.774 311.303 202.107 311.989L200.327 313.839ZM210.021 310.859C210.021 312.046 209.778 312.986 209.291 313.679C208.804 314.366 208.148 314.709 207.321 314.709C206.494 314.709 205.838 314.366 205.351 313.679C204.864 312.986 204.621 312.046 204.621 310.859C204.621 309.686 204.864 308.759 205.351 308.079C205.838 307.393 206.494 307.049 207.321 307.049C208.148 307.049 208.804 307.393 209.291 308.079C209.778 308.759 210.021 309.686 210.021 310.859ZM209.151 310.859C209.151 309.913 208.988 309.173 208.661 308.639C208.341 308.099 207.894 307.829 207.321 307.829C206.741 307.829 206.288 308.099 205.961 308.639C205.641 309.173 205.481 309.913 205.481 310.859C205.481 311.819 205.644 312.573 205.971 313.119C206.298 313.659 206.748 313.929 207.321 313.929C207.894 313.929 208.341 313.659 208.661 313.119C208.988 312.573 209.151 311.819 209.151 310.859ZM212.887 314.629H212.057V308.799H210.697V308.309C211.137 308.283 211.494 308.169 211.767 307.969C212.041 307.763 212.211 307.483 212.277 307.129H212.887V314.629ZM219.478 312.519C219.478 313.173 219.231 313.703 218.738 314.109C218.251 314.509 217.625 314.709 216.858 314.709C216.091 314.709 215.461 314.509 214.968 314.109C214.481 313.703 214.238 313.173 214.238 312.519C214.238 312.053 214.371 311.649 214.638 311.309C214.905 310.963 215.261 310.726 215.708 310.599C215.368 310.486 215.098 310.286 214.898 309.999C214.705 309.713 214.608 309.376 214.608 308.989C214.608 308.409 214.818 307.943 215.238 307.589C215.658 307.229 216.198 307.049 216.858 307.049C217.518 307.049 218.058 307.229 218.478 307.589C218.905 307.943 219.118 308.409 219.118 308.989C219.118 309.369 219.018 309.703 218.818 309.989C218.618 310.276 218.348 310.479 218.008 310.599C218.461 310.726 218.818 310.963 219.078 311.309C219.345 311.649 219.478 312.053 219.478 312.519ZM216.858 310.279C217.278 310.279 217.618 310.166 217.878 309.939C218.145 309.706 218.278 309.406 218.278 309.039C218.278 308.679 218.145 308.386 217.878 308.159C217.611 307.933 217.271 307.819 216.858 307.819C216.445 307.819 216.105 307.933 215.838 308.159C215.578 308.386 215.448 308.679 215.448 309.039C215.448 309.406 215.578 309.706 215.838 309.939C216.105 310.166 216.445 310.279 216.858 310.279ZM216.858 313.919C217.378 313.919 217.801 313.789 218.128 313.529C218.455 313.269 218.618 312.919 218.618 312.479C218.618 312.039 218.455 311.689 218.128 311.429C217.801 311.163 217.378 311.029 216.858 311.029C216.345 311.029 215.925 311.163 215.598 311.429C215.271 311.696 215.108 312.046 215.108 312.479C215.108 312.913 215.268 313.263 215.588 313.529C215.915 313.789 216.338 313.919 216.858 313.919Z" fill="black"/>
<path d="M228.294 313.839H231.914V314.629H227.144V313.929L229.404 311.589C229.97 311.016 230.347 310.566 230.534 310.239C230.727 309.906 230.824 309.573 230.824 309.239C230.824 308.819 230.687 308.479 230.414 308.219C230.147 307.959 229.797 307.829 229.364 307.829C228.93 307.829 228.57 307.956 228.284 308.209C227.997 308.456 227.82 308.806 227.754 309.259L226.934 309.089C227.047 308.456 227.324 307.959 227.764 307.599C228.21 307.233 228.757 307.049 229.404 307.049C230.084 307.049 230.634 307.249 231.054 307.649C231.474 308.049 231.684 308.573 231.684 309.219C231.684 309.626 231.58 310.019 231.374 310.399C231.174 310.773 230.74 311.303 230.074 311.989L228.294 313.839ZM237.987 310.859C237.987 312.046 237.744 312.986 237.257 313.679C236.771 314.366 236.114 314.709 235.287 314.709C234.461 314.709 233.804 314.366 233.317 313.679C232.831 312.986 232.587 312.046 232.587 310.859C232.587 309.686 232.831 308.759 233.317 308.079C233.804 307.393 234.461 307.049 235.287 307.049C236.114 307.049 236.771 307.393 237.257 308.079C237.744 308.759 237.987 309.686 237.987 310.859ZM237.117 310.859C237.117 309.913 236.954 309.173 236.627 308.639C236.307 308.099 235.861 307.829 235.287 307.829C234.707 307.829 234.254 308.099 233.927 308.639C233.607 309.173 233.447 309.913 233.447 310.859C233.447 311.819 233.611 312.573 233.937 313.119C234.264 313.659 234.714 313.929 235.287 313.929C235.861 313.929 236.307 313.659 236.627 313.119C236.954 312.573 237.117 311.819 237.117 310.859ZM240.854 314.629H240.024V308.799H238.664V308.309C239.104 308.283 239.46 308.169 239.734 307.969C240.007 307.763 240.177 307.483 240.244 307.129H240.854V314.629ZM241.975 309.519C241.975 308.793 242.218 308.199 242.705 307.739C243.192 307.279 243.812 307.049 244.565 307.049C245.298 307.049 245.898 307.269 246.365 307.709C246.838 308.149 247.075 308.716 247.075 309.409C247.075 309.716 247.025 310.019 246.925 310.319C246.832 310.619 246.688 310.913 246.495 311.199L244.235 314.629H243.275L245.195 311.749C245.068 311.789 244.938 311.823 244.805 311.849C244.672 311.869 244.542 311.879 244.415 311.879C243.702 311.879 243.115 311.659 242.655 311.219C242.202 310.779 241.975 310.213 241.975 309.519ZM246.215 309.459C246.215 308.986 246.058 308.599 245.745 308.299C245.438 307.993 245.042 307.839 244.555 307.839C244.055 307.839 243.645 307.996 243.325 308.309C243.005 308.623 242.845 309.026 242.845 309.519C242.845 309.999 243.002 310.393 243.315 310.699C243.635 311.006 244.045 311.159 244.545 311.159C244.778 311.159 244.998 311.119 245.205 311.039C245.412 310.959 245.592 310.843 245.745 310.689C245.898 310.529 246.015 310.346 246.095 310.139C246.175 309.933 246.215 309.706 246.215 309.459Z" fill="black"/>
<path d="M253.488 313.839H257.108V314.629H252.338V313.929L254.598 311.589C255.164 311.016 255.541 310.566 255.728 310.239C255.921 309.906 256.018 309.573 256.018 309.239C256.018 308.819 255.881 308.479 255.608 308.219C255.341 307.959 254.991 307.829 254.558 307.829C254.124 307.829 253.764 307.956 253.478 308.209C253.191 308.456 253.014 308.806 252.948 309.259L252.128 309.089C252.241 308.456 252.518 307.959 252.958 307.599C253.404 307.233 253.951 307.049 254.598 307.049C255.278 307.049 255.828 307.249 256.248 307.649C256.668 308.049 256.878 308.573 256.878 309.219C256.878 309.626 256.774 310.019 256.568 310.399C256.368 310.773 255.934 311.303 255.268 311.989L253.488 313.839ZM263.181 310.859C263.181 312.046 262.938 312.986 262.451 313.679C261.964 314.366 261.308 314.709 260.481 314.709C259.654 314.709 258.998 314.366 258.511 313.679C258.024 312.986 257.781 312.046 257.781 310.859C257.781 309.686 258.024 308.759 258.511 308.079C258.998 307.393 259.654 307.049 260.481 307.049C261.308 307.049 261.964 307.393 262.451 308.079C262.938 308.759 263.181 309.686 263.181 310.859ZM262.311 310.859C262.311 309.913 262.148 309.173 261.821 308.639C261.501 308.099 261.054 307.829 260.481 307.829C259.901 307.829 259.448 308.099 259.121 308.639C258.801 309.173 258.641 309.913 258.641 310.859C258.641 311.819 258.804 312.573 259.131 313.119C259.458 313.659 259.908 313.929 260.481 313.929C261.054 313.929 261.501 313.659 261.821 313.119C262.148 312.573 262.311 311.819 262.311 310.859ZM265.188 313.839H268.808V314.629H264.038V313.929L266.298 311.589C266.864 311.016 267.241 310.566 267.428 310.239C267.621 309.906 267.718 309.573 267.718 309.239C267.718 308.819 267.581 308.479 267.308 308.219C267.041 307.959 266.691 307.829 266.258 307.829C265.824 307.829 265.464 307.956 265.178 308.209C264.891 308.456 264.714 308.806 264.648 309.259L263.828 309.089C263.941 308.456 264.218 307.959 264.658 307.599C265.104 307.233 265.651 307.049 266.298 307.049C266.978 307.049 267.528 307.249 267.948 307.649C268.368 308.049 268.578 308.573 268.578 309.219C268.578 309.626 268.474 310.019 268.268 310.399C268.068 310.773 267.634 311.303 266.968 311.989L265.188 313.839ZM274.881 310.859C274.881 312.046 274.638 312.986 274.151 313.679C273.664 314.366 273.008 314.709 272.181 314.709C271.354 314.709 270.698 314.366 270.211 313.679C269.724 312.986 269.481 312.046 269.481 310.859C269.481 309.686 269.724 308.759 270.211 308.079C270.698 307.393 271.354 307.049 272.181 307.049C273.008 307.049 273.664 307.393 274.151 308.079C274.638 308.759 274.881 309.686 274.881 310.859ZM274.011 310.859C274.011 309.913 273.848 309.173 273.521 308.639C273.201 308.099 272.754 307.829 272.181 307.829C271.601 307.829 271.148 308.099 270.821 308.639C270.501 309.173 270.341 309.913 270.341 310.859C270.341 311.819 270.504 312.573 270.831 313.119C271.158 313.659 271.608 313.929 272.181 313.929C272.754 313.929 273.201 313.659 273.521 313.119C273.848 312.573 274.011 311.819 274.011 310.859Z" fill="black"/>
<path d="M282.728 313.839H286.348V314.629H281.578V313.929L283.838 311.589C284.405 311.016 284.781 310.566 284.968 310.239C285.161 309.906 285.258 309.573 285.258 309.239C285.258 308.819 285.121 308.479 284.848 308.219C284.581 307.959 284.231 307.829 283.798 307.829C283.365 307.829 283.005 307.956 282.718 308.209C282.431 308.456 282.255 308.806 282.188 309.259L281.368 309.089C281.481 308.456 281.758 307.959 282.198 307.599C282.645 307.233 283.191 307.049 283.838 307.049C284.518 307.049 285.068 307.249 285.488 307.649C285.908 308.049 286.118 308.573 286.118 309.219C286.118 309.626 286.015 310.019 285.808 310.399C285.608 310.773 285.175 311.303 284.508 311.989L282.728 313.839ZM292.421 310.859C292.421 312.046 292.178 312.986 291.691 313.679C291.205 314.366 290.548 314.709 289.721 314.709C288.895 314.709 288.238 314.366 287.751 313.679C287.265 312.986 287.021 312.046 287.021 310.859C287.021 309.686 287.265 308.759 287.751 308.079C288.238 307.393 288.895 307.049 289.721 307.049C290.548 307.049 291.205 307.393 291.691 308.079C292.178 308.759 292.421 309.686 292.421 310.859ZM291.551 310.859C291.551 309.913 291.388 309.173 291.061 308.639C290.741 308.099 290.295 307.829 289.721 307.829C289.141 307.829 288.688 308.099 288.361 308.639C288.041 309.173 287.881 309.913 287.881 310.859C287.881 311.819 288.045 312.573 288.371 313.119C288.698 313.659 289.148 313.929 289.721 313.929C290.295 313.929 290.741 313.659 291.061 313.119C291.388 312.573 291.551 311.819 291.551 310.859ZM294.428 313.839H298.048V314.629H293.278V313.929L295.538 311.589C296.105 311.016 296.481 310.566 296.668 310.239C296.861 309.906 296.958 309.573 296.958 309.239C296.958 308.819 296.821 308.479 296.548 308.219C296.281 307.959 295.931 307.829 295.498 307.829C295.065 307.829 294.705 307.956 294.418 308.209C294.131 308.456 293.955 308.806 293.888 309.259L293.068 309.089C293.181 308.456 293.458 307.959 293.898 307.599C294.345 307.233 294.891 307.049 295.538 307.049C296.218 307.049 296.768 307.249 297.188 307.649C297.608 308.049 297.818 308.573 297.818 309.219C297.818 309.626 297.715 310.019 297.508 310.399C297.308 310.773 296.875 311.303 296.208 311.989L294.428 313.839ZM300.571 314.629H299.741V308.799H298.381V308.309C298.821 308.283 299.178 308.169 299.451 307.969C299.725 307.763 299.895 307.483 299.961 307.129H300.571V314.629Z" fill="black"/>
<path d="M308.915 313.839H312.535V314.629H307.765V313.929L310.025 311.589C310.592 311.016 310.969 310.566 311.155 310.239C311.349 309.906 311.445 309.573 311.445 309.239C311.445 308.819 311.309 308.479 311.035 308.219C310.769 307.959 310.419 307.829 309.985 307.829C309.552 307.829 309.192 307.956 308.905 308.209C308.619 308.456 308.442 308.806 308.375 309.259L307.555 309.089C307.669 308.456 307.945 307.959 308.385 307.599C308.832 307.233 309.379 307.049 310.025 307.049C310.705 307.049 311.255 307.249 311.675 307.649C312.095 308.049 312.305 308.573 312.305 309.219C312.305 309.626 312.202 310.019 311.995 310.399C311.795 310.773 311.362 311.303 310.695 311.989L308.915 313.839ZM318.609 310.859C318.609 312.046 318.366 312.986 317.879 313.679C317.392 314.366 316.736 314.709 315.909 314.709C315.082 314.709 314.426 314.366 313.939 313.679C313.452 312.986 313.209 312.046 313.209 310.859C313.209 309.686 313.452 308.759 313.939 308.079C314.426 307.393 315.082 307.049 315.909 307.049C316.736 307.049 317.392 307.393 317.879 308.079C318.366 308.759 318.609 309.686 318.609 310.859ZM317.739 310.859C317.739 309.913 317.576 309.173 317.249 308.639C316.929 308.099 316.482 307.829 315.909 307.829C315.329 307.829 314.876 308.099 314.549 308.639C314.229 309.173 314.069 309.913 314.069 310.859C314.069 311.819 314.232 312.573 314.559 313.119C314.886 313.659 315.336 313.929 315.909 313.929C316.482 313.929 316.929 313.659 317.249 313.119C317.576 312.573 317.739 311.819 317.739 310.859ZM320.615 313.839H324.235V314.629H319.465V313.929L321.725 311.589C322.292 311.016 322.669 310.566 322.855 310.239C323.049 309.906 323.145 309.573 323.145 309.239C323.145 308.819 323.009 308.479 322.735 308.219C322.469 307.959 322.119 307.829 321.685 307.829C321.252 307.829 320.892 307.956 320.605 308.209C320.319 308.456 320.142 308.806 320.075 309.259L319.255 309.089C319.369 308.456 319.645 307.959 320.085 307.599C320.532 307.233 321.079 307.049 321.725 307.049C322.405 307.049 322.955 307.249 323.375 307.649C323.795 308.049 324.005 308.573 324.005 309.219C324.005 309.626 323.902 310.019 323.695 310.399C323.495 310.773 323.062 311.303 322.395 311.989L320.615 313.839ZM325.899 313.839H329.519V314.629H324.749V313.929L327.009 311.589C327.576 311.016 327.952 310.566 328.139 310.239C328.332 309.906 328.429 309.573 328.429 309.239C328.429 308.819 328.292 308.479 328.019 308.219C327.752 307.959 327.402 307.829 326.969 307.829C326.536 307.829 326.176 307.956 325.889 308.209C325.602 308.456 325.426 308.806 325.359 309.259L324.539 309.089C324.652 308.456 324.929 307.959 325.369 307.599C325.816 307.233 326.362 307.049 327.009 307.049C327.689 307.049 328.239 307.249 328.659 307.649C329.079 308.049 329.289 308.573 329.289 309.219C329.289 309.626 329.186 310.019 328.979 310.399C328.779 310.773 328.346 311.303 327.679 311.989L325.899 313.839Z" fill="black"/>
<path d="M339.021 296.15C339.222 295.949 339.222 295.623 339.021 295.422L335.745 292.147C335.544 291.946 335.219 291.946 335.018 292.147C334.817 292.348 334.817 292.674 335.018 292.875L337.929 295.786L335.018 298.698C334.817 298.899 334.817 299.224 335.018 299.425C335.219 299.626 335.544 299.626 335.745 299.425L339.021 296.15ZM0.718262 296.301L338.657 296.301L338.657 295.271L0.718262 295.271L0.718262 296.301Z" fill="black"/>
<path d="M185.857 189.805L185.258 189.219L185.258 189.219L185.857 189.805ZM280.486 5.99938C280.214 5.62489 279.69 5.54195 279.315 5.81412L273.213 10.2494C272.838 10.5216 272.755 11.0458 273.027 11.4203C273.3 11.7948 273.824 11.8777 274.198 11.6055L279.623 7.66307L283.565 13.0876C283.838 13.4621 284.362 13.545 284.736 13.2729C285.111 13.0007 285.194 12.4765 284.921 12.102L280.486 5.99938ZM2.34239 268.847C45.5779 268.847 120.629 257.599 186.456 190.392L185.258 189.219C119.848 256.001 45.296 267.17 2.34239 267.17V268.847ZM186.456 190.392C212.074 164.236 232.067 140.825 247.431 112.671C262.798 84.5128 273.511 51.6549 280.636 6.62318L278.98 6.36119C271.877 51.2558 261.212 83.9192 245.96 111.868C230.705 139.822 210.836 163.104 185.258 189.219L186.456 190.392Z" fill="#8E4FEE" fill-opacity="0.8"/>
</svg>
