<svg width="283" height="264" viewBox="0 0 283 264" fill="none" xmlns="http://www.w3.org/2000/svg">
<path d="M183.73 184.718L183.131 184.132L183.73 184.718ZM278.359 0.912463C278.087 0.537977 277.563 0.455034 277.188 0.727205L271.086 5.16249C270.711 5.43467 270.628 5.95889 270.901 6.33337C271.173 6.70786 271.697 6.7908 272.071 6.51863L277.496 2.57615L281.438 8.0007C281.711 8.37519 282.235 8.45813 282.609 8.18596C282.984 7.91379 283.067 7.38957 282.795 7.01508L278.359 0.912463ZM0.215435 263.76C43.451 263.76 118.502 252.512 184.329 185.305L183.131 184.132C117.721 250.914 43.1691 262.083 0.215435 262.083V263.76ZM184.329 185.305C209.947 159.149 229.94 135.738 245.304 107.584C260.671 79.4259 271.384 46.568 278.509 1.53627L276.853 1.27428C269.75 46.1689 259.085 78.8323 243.833 106.781C228.578 134.735 208.709 158.017 183.131 184.132L184.329 185.305Z" fill="#8E4FEE" fill-opacity="0.8"/>
</svg>
