<svg width="704" height="394" viewBox="0 0 704 394" fill="none" xmlns="http://www.w3.org/2000/svg">
<path d="M466.451 276.058L465.653 274.788L465.653 274.788L466.451 276.058ZM696.16 0.945266C695.738 0.232095 694.818 -0.00433359 694.105 0.417187L682.484 7.28626C681.77 7.70778 681.534 8.62763 681.955 9.3408C682.377 10.054 683.297 10.2904 684.01 9.86888L694.34 3.76304L700.446 14.0935C700.868 14.8067 701.788 15.0431 702.501 14.6216C703.214 14.2001 703.45 13.2802 703.029 12.567L696.16 0.945266ZM0.282227 393.537C105.133 393.537 307.347 377.825 467.249 277.328L465.653 274.788C306.486 374.823 104.979 390.537 0.282227 390.537V393.537ZM467.249 277.328C529.51 238.198 578.117 203.164 615.486 161.012C652.884 118.827 678.973 69.5764 696.321 2.0819L693.416 1.33509C676.171 68.4259 650.287 117.235 613.242 159.022C576.168 200.841 527.863 235.689 465.653 274.788L467.249 277.328Z" fill="#8E4FEE" fill-opacity="0.8"/>
</svg>
