<svg viewBox="0 0 11 11" fill="none" xmlns="http://www.w3.org/2000/svg">
<path fill-rule="evenodd" clip-rule="evenodd" d="M5.49362 10.9696C4.70785 10.9708 3.93098 10.8032 3.21561 10.4781C2.50024 10.153 1.86305 9.67804 1.34723 9.08527C0.83141 8.49251 0.44898 7.79584 0.225826 7.04242C0.00267283 6.289 -0.0559876 5.49642 0.0538131 4.71836C0.163614 3.94029 0.439337 3.19491 0.862269 2.53266C1.2852 1.87042 1.84547 1.30677 2.50518 0.879904C3.16489 0.453034 3.90867 0.17291 4.68606 0.0584759C5.46346 -0.0559577 6.25632 -0.00202312 7.01106 0.216638L6.51745 1.03387C5.59338 0.82148 4.62616 0.901734 3.74972 1.2635C2.87329 1.62527 2.13102 2.25064 1.62581 3.053C1.1206 3.85536 0.877457 4.79497 0.930003 5.74167C0.98255 6.68838 1.32822 7.59532 1.91912 8.33684C2.51002 9.07836 3.31691 9.61774 4.22799 9.8803C5.13908 10.1429 6.10925 10.1156 7.00414 9.80221C7.89902 9.48887 8.67434 8.90498 9.22262 8.13142C9.77091 7.35786 10.065 6.43293 10.0643 5.48477C10.0643 4.96212 9.97307 4.44348 9.79462 3.95223L10.3751 2.98874C10.8034 3.82458 11.0098 4.75645 10.9744 5.69498C10.939 6.6335 10.663 7.54718 10.173 8.34839C9.68291 9.14959 8.99521 9.81143 8.17581 10.2704C7.35642 10.7294 6.43282 10.9702 5.49362 10.9696ZM5.91414 7.02462C5.89343 7.08566 5.859 7.14117 5.81355 7.18688C5.77097 7.22987 5.71934 7.26281 5.6624 7.28329C5.60547 7.30377 5.54468 7.31128 5.48447 7.30526C5.38944 7.31189 5.29504 7.28581 5.21689 7.23135C5.13873 7.17689 5.08155 7.09733 5.05486 7.00589L3.30884 5.26081C3.23926 5.1824 3.20224 5.08039 3.20534 4.97561C3.20845 4.87083 3.25148 4.77118 3.32558 4.69703C3.39967 4.62288 3.49927 4.5798 3.60405 4.57661C3.70883 4.57342 3.81086 4.61037 3.88932 4.67989L5.37478 6.16579L8.7525 1.14996C8.78177 1.0964 8.82149 1.04925 8.86928 1.01129C8.91707 0.973319 8.97196 0.945307 9.03075 0.928905C9.08954 0.912504 9.15103 0.90805 9.21157 0.915794C9.27212 0.923537 9.33048 0.943331 9.38325 0.974001C9.48938 1.03948 9.5659 1.14367 9.59661 1.26453C9.62732 1.3854 9.60979 1.51346 9.54779 1.62166L5.91414 7.02462Z" fill="#BFBFBF"/>
</svg>
