<svg width="46" height="45" viewBox="0 0 46 45" fill="none" xmlns="http://www.w3.org/2000/svg">
<path d="M22.767 0.162842C10.4383 0.162842 0.441406 10.1597 0.441406 22.4884C0.441406 34.8171 10.4383 44.814 22.767 44.814C35.0957 44.814 45.0926 34.8206 45.0926 22.4884C45.0926 10.1562 35.0957 0.162842 22.767 0.162842ZM31.0062 11.2999C31.7071 11.2999 32.3922 11.5078 32.975 11.8972C33.5578 12.2866 34.012 12.84 34.2802 13.4876C34.5484 14.1351 34.6186 14.8476 34.4818 15.535C34.3451 16.2225 34.0076 16.8539 33.512 17.3495C33.0164 17.8451 32.385 18.1826 31.6975 18.3193C31.0101 18.4561 30.2976 18.3859 29.6501 18.1177C29.0025 17.8495 28.4491 17.3952 28.0597 16.8125C27.6703 16.2297 27.4624 15.5446 27.4624 14.8437C27.4624 13.9038 27.8358 13.0025 28.5004 12.3379C29.165 11.6733 30.0663 11.2999 31.0062 11.2999ZM14.5225 11.2999C15.2232 11.3008 15.9079 11.5094 16.4901 11.8993C17.0722 12.2892 17.5258 12.843 17.7933 13.4906C18.0608 14.1382 18.1304 14.8506 17.9931 15.5377C17.8559 16.2249 17.5181 16.8559 17.0223 17.351C16.5265 17.8462 15.8951 18.1833 15.2078 18.3197C14.5205 18.456 13.8082 18.3856 13.1609 18.1172C12.5136 17.8489 11.9604 17.3947 11.5712 16.812C11.182 16.2293 10.9743 15.5444 10.9743 14.8437C10.9743 14.3775 11.0663 13.9159 11.245 13.4853C11.4237 13.0547 11.6856 12.6636 12.0157 12.3344C12.3458 12.0052 12.7376 11.7444 13.1687 11.5669C13.5997 11.3894 14.0616 11.2987 14.5278 11.2999H14.5225ZM22.7617 37.9374C15.9639 37.9374 10.3586 32.8379 9.55326 26.2572H35.9763C35.1701 32.8379 29.5674 37.9374 22.767 37.9374H22.7617Z" fill="black"/>
</svg>
