<svg width="37" height="45" viewBox="0 0 37 45" fill="none" xmlns="http://www.w3.org/2000/svg">
<path d="M18.3242 0C8.46126 0 0.464844 8.41773 0.464844 18.8013C0.464844 29.1849 18.3242 44.6512 18.3242 44.6512C18.3242 44.6512 36.1858 29.1849 36.1858 18.8013C36.1858 8.41773 28.1872 0 18.3242 0ZM18.3242 27.2925C16.4702 27.2903 14.6585 26.725 13.118 25.6681C11.5776 24.6112 10.3775 23.1101 9.66947 21.3545C8.96147 19.5989 8.77734 17.6677 9.14035 15.805C9.50336 13.9422 10.3972 12.2315 11.7089 10.8891C13.0207 9.54672 14.6914 8.63288 16.5099 8.26311C18.3284 7.89334 20.2131 8.08423 21.9257 8.81166C23.6384 9.53908 25.1021 10.7704 26.1319 12.3499C27.1617 13.9295 27.7113 15.7864 27.7113 17.6859C27.7113 18.9484 27.4684 20.1985 26.9966 21.3648C26.5247 22.531 25.8331 23.5905 24.9612 24.4827C24.0894 25.3749 23.0545 26.0823 21.9157 26.5644C20.7769 27.0466 19.5564 27.294 18.3242 27.2925Z" fill="black"/>
</svg>
