<svg width="44" height="45" viewBox="0 0 44 45" fill="none" xmlns="http://www.w3.org/2000/svg">
<path d="M29.0234 1.33192C37.1079 4.11844 43.0834 11.6007 43.8301 20.5836H33.6368C33.403 12.5093 31.677 5.66242 29.0298 1.33192H29.0234Z" fill="black"/>
<path d="M14.1575 20.5836C14.5436 8.77306 18.4938 0.162842 22.0431 0.162842C25.5925 0.162842 29.5427 8.7763 29.9287 20.5836H14.1575Z" fill="black"/>
<path d="M0.25684 20.5836C1.00457 11.6017 6.98011 4.11844 15.0635 1.33192C12.4194 5.66134 10.6902 12.5082 10.4554 20.5836H0.25684Z" fill="black"/>
<path d="M43.8301 24.365C43.0897 33.3599 37.111 40.8507 29.0234 43.6405C31.6675 39.3078 33.3999 32.4501 33.6325 24.365H43.8301Z" fill="black"/>
<path d="M15.0635 43.6394C6.98011 40.8496 0.997172 33.3577 0.25684 24.3639H10.4544C10.6881 32.4501 12.4194 39.3067 15.0635 43.6394Z" fill="black"/>
<path d="M29.9287 24.365C29.5427 36.1896 25.5925 44.8138 22.0431 44.8138C18.4938 44.8138 14.5436 36.1885 14.1575 24.365H29.9287Z" fill="black"/>
</svg>
