<svg width="209" height="51" viewBox="0 0 209 51" fill="none" xmlns="http://www.w3.org/2000/svg">
<path d="M15.4969 18.2874C16.9913 19.9437 18.3916 24.7507 20.5182 27.5409H26.1246V26.9139C25.4407 26.8468 24.8096 26.5171 24.3638 25.9943C22.6082 24.0349 20.5129 17.1745 18.355 16.6206V16.5475C21.1452 15.6749 22.279 13.6476 22.279 11.4426C22.279 8.43303 20.1211 6.04521 14.7341 6.04521H5.48584V6.67221C7.57584 7.11111 7.94682 7.81125 7.94682 9.60865V24.1446C7.94682 25.8741 7.08469 26.7571 5.48584 26.8982V27.5252H14.7289V26.8982C12.9315 26.6056 12.2365 25.8009 12.2365 23.8886V17.2424C13.966 17.2424 14.6296 17.3208 15.4969 18.2874ZM12.2365 7.27308H13.5846C16.2441 7.27308 17.6392 8.77788 17.6392 11.5315C17.6392 15.0949 15.9411 16.375 12.2522 16.0824L12.2365 7.27308ZM42.6565 22.3106H42.0922C41.46 24.3693 40.3993 26.313 38.0062 26.313H36.8724C34.9444 26.313 34.2129 25.6128 34.2129 23.6691V17.3573H37.6196C39.2132 17.3573 40.0806 18.2404 40.3105 20.1109H40.9636V13.4647H40.3314C39.929 15.4084 39.1871 16.1451 37.6196 16.1451H34.2129V7.26263H37.9697C40.1328 7.26263 40.8643 8.07251 41.4913 10.8261H42.0608V6.04521H27.4622V6.66698C29.5208 7.1111 29.9232 7.76945 29.9232 9.64V23.4497C29.9232 25.6546 29.6253 26.3861 27.4622 26.8982V27.5252H42.2907L42.6565 22.3106ZM48.4406 11.8606C47.8536 11.2531 47.5081 10.4525 47.4687 9.60865C47.4875 9.20893 47.5848 8.81683 47.7552 8.45474C47.9255 8.09265 48.1656 7.76768 48.4615 7.49838C48.7575 7.22908 49.1037 7.02074 49.4802 6.88525C49.8567 6.74977 50.2563 6.68981 50.656 6.70878V6.70878C52.6519 6.70878 54.7471 8.65248 55.4786 11.15H56.0429V5.49658H55.4891C55.3734 5.65939 55.2247 5.79607 55.0528 5.89778C54.8809 5.99949 54.6895 6.06395 54.4911 6.087C53.928 6.05238 53.3706 5.95422 52.8296 5.7944C52.1785 5.61666 51.5083 5.51841 50.8336 5.5018C47.244 5.5018 44.7151 8.0725 44.7151 11.7718C44.6901 13.45 45.3004 15.0757 46.4237 16.3228C48.0539 18.1202 51.4763 19.6981 52.9706 21.3545C53.5906 22.0246 53.9454 22.8976 53.9686 23.8102C53.9686 25.571 52.4743 26.8564 50.379 26.8564C47.5889 26.8564 45.7236 24.6567 45.154 21.459H44.6159V27.9275H45.1802C45.2595 27.7262 45.3965 27.5528 45.5741 27.4291C45.7516 27.3055 45.9618 27.2371 46.1781 27.2326C47.1761 27.2326 48.6025 28.0738 50.9329 28.0738C53.2632 28.0738 57.2029 26.569 57.2029 21.8352C57.2029 19.9646 56.5393 18.4964 55.0763 16.8766C53.8589 15.5547 49.4072 12.9474 48.4406 11.8868V11.8606ZM72.0262 7.2574C74.3513 7.2574 75.6837 8.3024 76.3473 10.7843H76.9116L76.713 5.6063H76.1122C75.5212 5.92484 74.8547 6.07656 74.1841 6.04521H61.6441C61.2929 6.04517 60.9427 6.00839 60.5991 5.93548C60.2837 5.87528 59.9801 5.7641 59.7004 5.6063H59.1466L58.9637 10.7843H59.528C60.1916 8.3233 61.524 7.2574 63.8491 7.2574H65.8085V23.6691C65.8085 25.7278 65.4114 26.4593 63.3475 26.8982V27.5252H72.4912V26.8982C70.6625 26.5324 70.0982 25.8009 70.0982 23.7057V7.2574H72.0262ZM81.0498 23.1571L82.0112 20.2938H88.9291L90.0577 23.6012C90.7578 25.6546 90.6586 26.3914 88.2289 26.9034V27.5304H97.7698V26.9034C96.0717 26.7571 95.2095 25.7278 94.1436 22.6816L88.2342 5.49658H85.6112L80.0257 22.018C79.1949 24.5156 78.2649 26.5324 76.3682 26.8982V27.5252H82.6382V26.8982C80.5064 26.2764 80.3862 25.1739 81.0707 23.1571H81.0498ZM85.4388 10.0476L88.3961 18.7472H82.633L85.4388 10.0476ZM111.595 24.6776V27.5409H118.346V26.9139C116.319 26.3914 115.885 25.8166 115.885 23.9043V10.1364C115.885 8.1143 116.015 7.2365 118.346 6.68265V6.06088H109.155V6.68265C111.182 7.23128 111.616 7.72766 111.616 9.69226V23.1362C109.824 25.1896 108.293 26.1092 106.631 26.1092C104.369 26.1092 102.974 24.5417 102.974 21.8874V9.8699C102.974 7.88963 103.303 7.22605 105.43 6.67743V6.06088H96.2232V6.68265C98.2505 7.23128 98.6842 7.78513 98.6842 9.69226V20.9678C98.6842 25.2993 101.297 28.0895 105.367 28.0895C107.791 28.0895 109.202 27.3214 111.637 24.6776H111.595ZM138.99 25.9995C137.229 24.0506 135.134 17.1901 132.971 16.6363V16.5631C135.766 15.7062 136.874 13.6633 136.874 11.4583C136.874 8.4487 134.711 6.06088 129.329 6.06088H120.128V6.68788C122.218 7.12678 122.589 7.82693 122.589 9.62433V24.1603C122.589 25.8898 121.726 26.7728 120.128 26.9139V27.5409H129.371V26.9139C127.573 26.6213 126.878 25.8166 126.878 23.9043V17.2424C128.608 17.2424 129.271 17.279 130.139 18.2351C131.633 19.8915 133.028 24.6985 135.16 27.4886H140.777V26.8616C140.095 26.8031 139.462 26.4829 139.011 25.9681L138.99 25.9995ZM126.857 16.072V7.27308H128.19C130.849 7.27308 132.244 8.77788 132.244 11.5315C132.244 15.0949 130.546 16.3803 126.857 16.0877V16.072ZM159.205 22.6973L153.285 5.51226H150.626L145.04 22.0337C144.21 24.5313 143.28 26.5481 141.383 26.9139V27.5409H147.653V26.9139C145.521 26.2921 145.39 25.1896 146.085 23.1728L147.047 20.3095H153.965L155.093 23.6169C155.793 25.6703 155.694 26.407 153.265 26.9191V27.5461H162.805V26.9191C161.154 26.7571 160.287 25.7278 159.226 22.6816L159.205 22.6973ZM147.669 18.7681L150.495 10.0685L153.453 18.7681H147.669ZM163.626 26.9139V27.5409H170.345V26.9139C168.114 26.5115 167.487 25.8689 167.487 23.5019V10.3558L181.48 27.7969H182.112V10.2095C182.112 8.29718 182.713 6.83418 184.938 6.68265V6.05565H178.355V6.68265C180.414 7.20515 180.816 8.18746 180.816 10.7947V20.4558L169.441 6.06088H163.589V6.68788C164.389 6.87076 164.686 7.12678 166.202 8.81445V23.2093C166.202 25.2993 165.721 26.5481 163.626 26.9139V26.9139ZM203.174 10.7843H203.738L203.539 5.6063H202.939C202.348 5.92484 201.681 6.07656 201.011 6.04521H188.471C188.119 6.04517 187.769 6.00839 187.426 5.93548C187.112 5.87378 186.811 5.76266 186.532 5.6063H185.931L185.733 10.7843H186.297C186.961 8.3233 188.293 7.2574 190.618 7.2574H192.577V23.6691C192.577 25.7278 192.18 26.4593 190.116 26.8982V27.5252H199.26V26.8982C197.431 26.5324 196.867 25.8009 196.867 23.7057V7.2574H198.827C201.162 7.2574 202.51 8.3233 203.174 10.7843ZM6.71371 40.0129V40.3003H13.5428L13.804 37.7348H13.5428C12.8322 39.3703 12.3254 39.7099 11.2281 39.7099C10.1309 39.7099 9.84871 39.4748 9.84871 38.6649V32.0291C9.84871 31.1722 10.0943 30.9841 10.9825 30.7124V30.4251H6.71371V30.7124C7.64899 30.9685 7.84754 31.2349 7.84754 32.0971V38.4089C7.83709 39.4695 7.75871 39.7099 6.71371 40.0129ZM26.4433 40.0129V40.3003H33.2358L33.4344 37.902H33.1731C32.8857 38.8478 32.3946 39.7099 31.2712 39.7099H30.7487C29.8605 39.7099 29.5261 39.3912 29.5261 38.4925V35.6083H31.0936C31.8251 35.6083 32.2222 36.0158 32.3319 36.8727H32.6245V33.8213H32.3319C32.149 34.7148 31.8094 35.0544 31.0936 35.0544H29.5261V30.9841H31.2712C32.264 30.9841 32.5984 31.3551 32.891 32.6196H33.1522V30.4251H26.4485V30.7124C27.3943 30.9162 27.5771 31.2349 27.5771 32.0814V38.4245C27.5824 39.4382 27.4413 39.7778 26.4485 40.0129H26.4433ZM54.0783 38.0692L51.3613 30.1743H50.1596L47.5471 37.7662C47.1657 38.9105 46.7372 39.8562 45.8646 40.0077V40.2951H48.7541V40.0077C47.7979 39.7099 47.7404 39.1874 48.0696 38.2887L48.5137 36.972H51.6905L52.213 38.4872C52.5317 39.433 52.4899 39.7726 51.3718 40.0077V40.2951H55.7556V40.0077C54.9666 39.945 54.5695 39.4695 54.0836 38.0692H54.0783ZM48.7802 36.2666L50.0812 32.2695L51.4397 36.2666H48.7802ZM72.9249 30.4251H68.3687V30.7124C69.304 30.9841 69.5025 31.2349 69.5025 32.1127V38.3827C69.5025 39.3964 69.4398 39.6681 68.3687 39.9868V40.2742H73.5362C76.5615 40.2742 78.3223 38.2991 78.3223 35.462C78.2962 32.8181 76.6242 30.4251 72.9249 30.4251ZM72.9249 39.7412C71.8068 39.7412 71.4724 39.3703 71.4724 38.5761V30.9841H72.6271C75.1351 30.9841 76.1749 33.0428 76.1749 35.3888C76.1749 38.1581 74.9888 39.7256 72.9092 39.7256L72.9249 39.7412ZM98.3132 37.902H98.0519C97.7593 38.8478 97.2734 39.7412 96.1709 39.7412H95.6484C94.7602 39.7412 94.4258 39.4225 94.4258 38.5238V35.6239H95.9933C96.7248 35.6239 97.1219 36.0315 97.2316 36.8884H97.5242V33.837H97.2316C97.0487 34.7305 96.7091 35.0701 95.9933 35.0701H94.4258V30.9841H96.1396C97.1323 30.9841 97.472 31.3551 97.7593 32.6196H98.0206V30.4251H91.3274V30.7124C92.2731 30.9162 92.456 31.2349 92.456 32.0814V38.4245C92.456 39.4382 92.3201 39.7726 91.3274 39.992V40.2794H98.1199L98.3132 37.902ZM116.93 35.2895V35.2582C117.452 35.1311 117.915 34.83 118.242 34.4045C118.57 33.9789 118.743 33.4544 118.732 32.9174C118.732 31.5328 117.74 30.4355 115.263 30.4355H111.015V30.7229C111.977 30.9267 112.144 31.2454 112.144 32.0762V38.7589C112.163 38.9052 112.153 39.0537 112.114 39.196C112.075 39.3383 112.009 39.4716 111.919 39.5881C111.828 39.7047 111.716 39.8022 111.588 39.8751C111.46 39.948 111.318 39.9949 111.172 40.0129C111.12 40.0181 111.067 40.0181 111.015 40.0129V40.3003H115.263V40.0129C114.438 39.8771 114.119 39.4904 114.119 38.6283V35.5874C114.913 35.5874 115.216 35.5874 115.613 36.0472C116.303 36.8048 116.94 39.015 117.923 40.3003H120.504V40.0129C120.189 39.9818 119.899 39.8301 119.694 39.5897C118.884 38.6649 117.923 35.5299 116.93 35.2843V35.2895ZM114.119 35.0283V30.9841H114.73C115.953 30.9841 116.595 31.6791 116.595 32.9435C116.59 34.5789 115.812 35.1694 114.119 35.0074V35.0283ZM134.935 33.1159C134.664 32.8339 134.506 32.462 134.491 32.0709C134.509 31.699 134.673 31.3492 134.948 31.0984C135.224 30.8476 135.587 30.7163 135.959 30.7333C136.874 30.7333 137.84 31.632 138.175 32.7763H138.436V30.1638H138.175C138.121 30.2385 138.053 30.3012 137.973 30.348C137.894 30.3947 137.806 30.4245 137.715 30.4355C137.456 30.4279 137.198 30.3911 136.947 30.3258C136.649 30.2416 136.342 30.1959 136.032 30.1899C135.309 30.1717 134.609 30.4408 134.084 30.9383C133.559 31.4359 133.252 32.1212 133.232 32.8442C133.232 32.9174 133.232 32.9905 133.232 33.0637C133.225 33.8353 133.509 34.5812 134.026 35.1537C134.773 35.9792 136.351 36.7212 137.036 37.4631C137.323 37.7719 137.486 38.1754 137.495 38.597C137.495 39.4068 136.806 39.9973 135.844 39.9973C134.559 39.9973 133.702 38.9836 133.446 37.5154H133.185V40.4884H133.446C133.485 40.3972 133.548 40.3187 133.63 40.2623C133.711 40.2059 133.807 40.1738 133.906 40.1697C134.36 40.1697 135.024 40.5563 136.09 40.5563C136.825 40.5832 137.541 40.317 138.08 39.8163C138.618 39.3156 138.936 38.6214 138.964 37.8864V37.6878C138.961 37.2622 138.873 36.8414 138.705 36.4502C138.537 36.059 138.293 35.7053 137.987 35.4097C137.412 34.8036 135.374 33.6019 134.93 33.1159H134.935ZM158.484 30.7177C159.404 30.9737 159.602 31.2402 159.602 32.1023V34.8036H155.307V32.0344C155.307 31.2088 155.579 30.9371 156.41 30.7177V30.4303H152.23V30.7177C153.16 30.9737 153.359 31.2402 153.359 32.1023V38.4141C153.359 39.3755 153.327 39.7151 152.23 40.0182V40.3055H156.41V40.0182C155.496 39.7621 155.307 39.4957 155.307 38.6335V35.4985H159.602V38.3984C159.602 39.3441 159.54 39.7308 158.484 40.0025V40.2899H162.706V40.0025C161.771 39.7465 161.572 39.48 161.572 38.6179V32.3165C161.572 31.2715 161.635 31.0155 162.706 30.7124V30.4251H158.484V30.7177ZM180.22 30.7177V30.4303H176.004V30.7177C176.934 30.9737 177.132 31.2402 177.132 32.1023V38.4141C177.132 39.3755 177.101 39.7151 176.004 40.0182V40.3055H180.236V40.0182C179.301 39.7621 179.102 39.4957 179.102 38.6335V32.3008C179.086 31.3499 179.139 30.9841 180.22 30.7124V30.7177ZM197.546 35.9009C200.096 35.9009 200.953 34.2968 200.953 33.048C200.953 31.7992 200.065 30.4355 197.896 30.4355H193.325V30.7229C194.255 30.9423 194.453 31.1775 194.453 32.0762V38.5186C194.453 39.5113 194.223 39.8196 193.325 40.0182V40.3055H197.541V40.0182C196.684 39.851 196.423 39.4957 196.423 38.6335V35.812C196.795 35.8686 197.17 35.8966 197.546 35.8956V35.9009ZM196.418 30.9894H197.165C198.142 30.9894 198.816 31.8515 198.816 33.1316C198.816 34.5319 198.158 35.3418 197.076 35.3418C196.851 35.3414 196.628 35.3007 196.418 35.2216V30.9894ZM206.716 5.6481V7.60748H206.998V6.76103H207.197C207.427 6.76103 207.537 6.85508 207.578 7.10588C207.59 7.28543 207.63 7.46193 207.699 7.62838H207.996C207.935 7.4728 207.896 7.30912 207.881 7.14245C207.845 6.85508 207.74 6.69833 207.584 6.66698C207.686 6.63699 207.775 6.57407 207.837 6.48804C207.899 6.40201 207.932 6.29773 207.928 6.19151C207.933 6.1159 207.92 6.04029 207.892 5.96991C207.864 5.89954 207.821 5.8361 207.766 5.78396C207.604 5.67425 207.408 5.6227 207.213 5.63765C207.039 5.62311 206.864 5.62311 206.69 5.63765L206.716 5.6481ZM207.636 6.1706C207.636 6.41095 207.437 6.505 207.202 6.505H206.998V5.85711H207.202C207.521 5.85711 207.636 6.01385 207.636 6.18628V6.1706Z" fill="black"/>
<path d="M207.297 4.82267C206.857 4.85096 206.447 5.05091 206.153 5.37938C205.86 5.70784 205.708 6.13846 205.729 6.57827C205.729 6.994 205.894 7.3927 206.188 7.68666C206.482 7.98063 206.881 8.14577 207.297 8.14577C207.712 8.14577 208.111 7.98063 208.405 7.68666C208.699 7.3927 208.864 6.994 208.864 6.57827C208.878 6.35984 208.848 6.14092 208.776 5.93416C208.704 5.72739 208.592 5.53689 208.446 5.37364C208.301 5.2104 208.124 5.07766 207.927 4.98309C207.729 4.88852 207.515 4.834 207.297 4.82267V4.82267ZM208.577 6.58873C208.629 6.92684 208.546 7.27199 208.344 7.5483C208.142 7.8246 207.839 8.00944 207.5 8.06217C207.333 8.08896 207.163 8.08248 206.998 8.0431C206.833 8.00372 206.678 7.93222 206.541 7.83269C206.404 7.73317 206.288 7.60759 206.2 7.46316C206.112 7.31872 206.053 7.15829 206.027 6.99105C206.006 6.85776 206.006 6.72202 206.027 6.58873C206.001 6.22412 206.12 5.86393 206.357 5.58619C206.595 5.30844 206.932 5.13551 207.297 5.10483C207.663 5.1329 208.003 5.30472 208.243 5.58275C208.483 5.86079 208.603 6.22244 208.577 6.58873ZM0 0H209V0.78375H0V0ZM0.088824 46.8839H43.7541V47.6677H0.088824V46.8839ZM165.335 46.8839H209V47.6677H165.335V46.8839ZM48.4828 49.8674C47.5005 49.8674 46.8055 49.0314 46.8055 47.9132C46.8055 46.7951 47.5005 45.98 48.4828 45.98C48.7517 45.9718 49.0177 46.0376 49.2517 46.1703C49.4858 46.303 49.6789 46.4974 49.8099 46.7324L50.3742 46.2883C50.1837 45.9575 49.9061 45.6852 49.5718 45.501C49.2374 45.3167 48.859 45.2276 48.4775 45.2433C47.7667 45.3057 47.1097 45.6479 46.6511 46.1947C46.1925 46.7414 45.9699 47.4479 46.0322 48.1588C46.0875 48.7888 46.3629 49.3791 46.8101 49.8263C47.2572 50.2734 47.8476 50.5488 48.4775 50.6041C48.8752 50.6146 49.2683 50.5166 49.6144 50.3205C49.9605 50.1244 50.2467 49.8377 50.4421 49.4912L49.8778 49.0523C49.7412 49.302 49.5392 49.5098 49.2934 49.6534C49.0476 49.797 48.7674 49.871 48.4828 49.8674V49.8674ZM61.3258 45.2328C60.615 45.1598 59.9043 45.3719 59.3497 45.8225C58.7952 46.2732 58.4423 46.9256 58.3685 47.6363C58.3316 47.9887 58.3645 48.3449 58.4653 48.6845C58.5662 49.0242 58.733 49.3406 58.9562 49.6158C59.1794 49.8909 59.4547 50.1194 59.7662 50.2881C60.0778 50.4567 60.4196 50.5624 60.772 50.5989C61.1243 50.635 61.4804 50.6014 61.8197 50.4999C62.1591 50.3984 62.4751 50.231 62.7498 50.0073C63.0244 49.7836 63.2523 49.508 63.4203 49.1962C63.5884 48.8844 63.6934 48.5426 63.7293 48.1902C63.7347 48.0979 63.7347 48.0055 63.7293 47.9132C63.7723 47.2467 63.5487 46.5904 63.1077 46.0887C62.6668 45.587 62.0446 45.281 61.3781 45.238L61.3258 45.2328ZM61.3258 49.8674C60.3383 49.8674 59.6329 49.0314 59.6329 47.9132C59.6329 46.7951 60.3383 45.98 61.3258 45.98C62.3133 45.98 63.0083 46.816 63.0083 47.9342C63.0083 49.0523 62.3133 49.8674 61.3258 49.8674V49.8674ZM75.6423 48.1745C75.6423 48.4671 75.6893 48.9269 75.6893 48.9269C75.6893 48.9269 75.4333 48.5559 75.2504 48.3417L72.6379 45.2433H72.5491V50.531H73.2336V47.6468C73.2336 47.3228 73.1866 46.8944 73.1866 46.8944C73.1866 46.8944 73.4426 47.2549 73.6307 47.4796L76.2432 50.6146H76.332V45.3007H75.6475L75.6423 48.1745ZM85.319 50.531H86.0557V48.441H88.0622V47.7199H86.0557V46.0375H88.2711V45.3007H85.319V50.5257V50.531ZM97.7806 48.2529H99.7923V47.5475H97.7806V46.0113H100.048V45.3007H97.0387V50.5257H100.148V49.8099H97.7806V48.2529ZM112.285 46.9623C112.299 46.7568 112.272 46.5506 112.205 46.3556C112.139 46.1606 112.035 45.9805 111.899 45.8257C111.763 45.6709 111.598 45.5444 111.413 45.4535C111.229 45.3625 111.028 45.3088 110.822 45.2955C110.737 45.2877 110.651 45.2877 110.566 45.2955H108.999V50.5205H109.725V48.5925H110.582L111.627 50.531H112.468L111.355 48.441C111.646 48.3232 111.892 48.1171 112.059 47.8517C112.226 47.5863 112.305 47.2752 112.285 46.9623V46.9623ZM110.54 47.908H109.725V45.98H110.545C111.167 45.98 111.533 46.2465 111.533 46.9257C111.55 47.059 111.536 47.1944 111.491 47.3212C111.447 47.4481 111.374 47.5629 111.278 47.6566C111.181 47.7503 111.065 47.8204 110.937 47.8613C110.809 47.9022 110.673 47.9128 110.54 47.8923V47.908ZM121.857 48.2529H123.869V47.5475H121.857V46.0113H124.13V45.3007H121.142V50.5257H124.245V49.8099H121.878V48.2424L121.857 48.2529ZM136.158 48.1745C136.158 48.4671 136.205 48.9269 136.205 48.9269C136.205 48.9269 135.949 48.5559 135.766 48.3417L133.154 45.2433H133.055V50.531H133.76V47.6468C133.76 47.3228 133.713 46.8944 133.713 46.8944C133.713 46.8944 133.969 47.2549 134.157 47.4796L136.77 50.6146H136.858V45.3007H136.174L136.158 48.1745ZM148.05 49.8674C147.068 49.8674 146.373 49.0314 146.373 47.9132C146.373 46.7951 147.068 45.98 148.05 45.98C148.32 45.9714 148.587 46.037 148.822 46.1697C149.057 46.3024 149.251 46.497 149.383 46.7324L149.947 46.2883C149.756 45.9575 149.479 45.6852 149.145 45.501C148.81 45.3167 148.432 45.2276 148.05 45.2433C147.339 45.3057 146.683 45.6479 146.224 46.1947C145.765 46.7414 145.543 47.4479 145.605 48.1588C145.66 48.7888 145.936 49.3791 146.383 49.8263C146.83 50.2734 147.42 50.5488 148.05 50.6041C148.448 50.6146 148.841 50.5166 149.187 50.3205C149.533 50.1244 149.82 49.8377 150.015 49.4912L149.435 49.0314C149.3 49.2805 149.1 49.4884 148.856 49.6328C148.612 49.7773 148.334 49.8529 148.05 49.8517V49.8674ZM159.441 48.2529H161.452V47.5475H159.441V46.0113H161.709V45.3007H158.704V50.5257H161.808V49.8099H159.441V48.2529Z" fill="black"/>
</svg>
