<svg width="193" height="37" viewBox="0 0 193 37" fill="none" xmlns="http://www.w3.org/2000/svg">
<path d="M0 0.0102892H14.1493C16.3619 -0.0928487 18.5463 0.546578 20.3631 1.82924C21.1945 2.52808 21.8564 3.41081 22.2977 4.40944C22.739 5.40808 22.9479 6.49595 22.9084 7.58923C22.9084 10.3934 21.7855 12.1366 19.5396 13.1977V13.3492C22.5341 14.3345 24.256 17.0629 24.256 20.3219C24.3147 21.6641 24.0607 23.0014 23.5145 24.2258C22.9683 25.4503 22.1452 26.5274 21.1117 27.3703C19.4647 28.5829 17.3685 29.1134 14.5237 29.1134H0V0.0102892ZM12.7269 11.3787C13.0734 11.4152 13.4236 11.3742 13.7528 11.2587C14.0819 11.1432 14.382 10.956 14.6319 10.7102C14.8818 10.4645 15.0754 10.1662 15.199 9.83649C15.3225 9.50675 15.3731 9.15357 15.3472 8.80187C15.3472 7.1345 14.2242 6.30081 12.652 6.30081H7.78588V11.3029H12.7269V11.3787ZM13.4007 22.6713C13.7958 22.7045 14.1934 22.6515 14.5665 22.5157C14.9397 22.38 15.2797 22.1648 15.5636 21.8846C15.8475 21.6043 16.0686 21.2657 16.2121 20.8915C16.3556 20.5173 16.4181 20.1163 16.3953 19.7155C16.3953 17.6692 15.0477 16.7598 13.4007 16.7598H7.86074V22.7471H13.4007V22.6713Z" fill="black"/>
<path d="M25.5283 0.0102539H32.9399V29.1892H25.5283V0.0102539Z" fill="black"/>
<path d="M34.4385 18.8059C34.4385 12.2122 38.6309 7.81641 45.1441 7.81641C51.6572 7.81641 55.7748 12.288 55.7748 18.8059C55.7748 25.3238 51.6572 29.7953 45.1441 29.7953C38.6309 29.7953 34.4385 25.3996 34.4385 18.8059ZM48.3632 18.8059C48.3632 15.168 47.2403 12.8943 44.9943 12.8943C42.7484 12.8943 41.7003 15.168 41.7003 18.8059C41.7003 22.4438 42.7484 24.7932 44.9943 24.7932C47.2403 24.7932 48.3632 22.4438 48.3632 18.8059Z" fill="black"/>
<path d="M56.5977 18.8064C56.5977 12.2127 60.79 7.81689 67.3032 7.81689C73.8164 7.81689 77.8591 12.2127 77.8591 18.8064C77.8591 25.4 73.7416 29.7958 67.2284 29.7958C60.7152 29.7958 56.5977 25.4 56.5977 18.8064ZM70.5224 18.8064C70.5224 15.1685 69.3994 12.8948 67.1535 12.8948C64.9076 12.8948 63.8595 15.1685 63.8595 18.8064C63.8595 22.4443 64.9076 24.7937 67.1535 24.7937C69.3994 24.7937 70.5224 22.4443 70.5224 18.8064V18.8064Z" fill="black"/>
<path d="M79.3555 8.34708H86.243V11.4545H86.3927C86.9532 10.2856 87.8415 9.31001 88.9467 8.6495C90.0518 7.98899 91.3248 7.6729 92.6064 7.74077C93.7804 7.68153 94.9436 7.9923 95.9358 8.63027C96.9279 9.26823 97.7003 10.202 98.1464 11.3029H98.2961C98.9169 10.1619 99.8438 9.22199 100.97 8.59167C102.096 7.96136 103.375 7.66637 104.66 7.74077C109.451 7.74077 111.472 11.3029 111.472 16.0776V29.1134H104.285V17.366C104.285 15.2439 103.611 13.8797 101.815 13.8797C100.018 13.8797 99.1196 15.5471 99.1196 17.8208V29.1134H91.9327V17.366C91.9327 15.2439 91.2589 13.8797 89.4621 13.8797C87.6654 13.8797 86.767 15.5471 86.767 17.8208V29.1134H79.3555V8.34708Z" fill="black"/>
<path d="M120.531 26.385H120.457V29.1134H113.562V0.0102539H120.748V10.4692H120.898C121.566 9.54889 122.449 8.8109 123.469 8.32145C124.488 7.83201 125.611 7.60644 126.738 7.66499C131.903 7.66499 134.898 12.3639 134.898 18.6545C134.898 25.7029 131.679 29.7955 126.288 29.7955C125.111 29.8246 123.948 29.5209 122.931 28.9185C121.914 28.3161 121.083 27.4388 120.531 26.385V26.385ZM127.494 18.5787C127.494 15.2439 126.296 13.046 124.125 13.046C121.954 13.046 120.531 15.2439 120.531 18.5787C120.531 21.9134 121.954 24.1113 124.125 24.1113C126.296 24.1113 127.494 21.9892 127.494 18.5787Z" fill="black"/>
<path d="M135.729 18.7297C135.729 12.2118 139.996 7.74022 146.135 7.74022C147.452 7.68759 148.766 7.90184 150 8.37037C151.234 8.8389 152.363 9.55228 153.322 10.4686C155.717 12.8181 156.765 16.456 156.69 20.7002H142.915C143.215 23.2771 144.413 24.6413 146.584 24.6413C147.207 24.6798 147.825 24.5069 148.34 24.15C148.855 23.7932 149.238 23.2727 149.429 22.6707H156.391C155.193 27.4455 151.525 29.7949 146.359 29.7949C139.996 29.7192 135.729 25.3234 135.729 18.7297ZM142.915 16.5318H149.496C149.346 14.0307 147.999 12.7423 146.277 12.7423C144.256 12.6665 143.14 14.1065 142.915 16.5318Z" fill="black"/>
<path d="M164.851 11.9092H165.001C166.498 9.02922 168.445 7.89238 170.915 7.89238C171.327 7.85496 171.742 7.93364 172.113 8.11974V14.4861H171.956C167.688 13.7282 165.218 15.7745 165.218 20.4734V29.1892H157.956V8.34711H164.844L164.851 11.9092Z" fill="black"/>
<path d="M172.862 29.1897H179.824C180.123 30.0992 181.022 30.9329 182.744 30.9329C185.064 30.9329 185.888 29.4929 185.888 27.295V25.7792H185.738C185.149 26.5292 184.396 27.1314 183.539 27.5389C182.682 27.9464 181.744 28.1483 180.797 28.1287C176.38 28.1287 172.487 24.7939 172.487 18.2761C172.487 12.2887 175.632 7.66553 180.423 7.66553C181.517 7.59275 182.611 7.82222 183.587 8.32945C184.562 8.83668 185.384 9.60263 185.963 10.5455H186.113V8.27185H193V26.3097C193 29.6445 191.877 32.2213 190.155 33.7371C188.433 35.2529 185.813 36.0108 182.893 36.0108C177.353 36.0866 173.535 33.8129 172.862 29.1897ZM186.187 17.9729C186.187 15.396 184.99 13.2739 182.893 13.2739C180.797 13.2739 179.599 15.0929 179.599 17.9729C179.599 20.8529 180.872 22.7476 182.893 22.7476C184.915 22.7476 186.18 20.724 186.18 17.9729H186.187Z" fill="black"/>
</svg>
