<?xml version="1.0" encoding="UTF-8" standalone="no"?>
<!DOCTYPE svg PUBLIC "-//W3C//DTD SVG 1.1//EN" "http://www.w3.org/Graphics/SVG/1.1/DTD/svg11.dtd">
<svg xmlns="http://www.w3.org/2000/svg" version="1.1" viewBox="0 0 204 101">
<path fill="#000000" d="M 160.60,53.57 A 1.42,1.41 85.9 0 1 161.78,54.60 L 166.41,71.68 A 0.70,0.69 78.8 0 1 165.83,72.56 Q 151.93,74.29 140.49,66.49 Q 128.92,58.61 125.56,45.44 Q 123.48,37.25 125.15,29.17 Q 126.77,21.34 131.67,14.74 Q 137.38,7.04 146.14,3.20 Q 154.41,-0.43 163.77,0.26 Q 175.76,1.14 184.61,8.80 Q 192.47,15.61 195.67,25.16 Q 199.46,36.46 195.27,48.70 A 0.62,0.61 -67.1 0 1 194.41,49.05 L 178.01,40.76 A 0.59,0.58 -73.8 0 1 177.70,40.18 Q 178.99,28.71 171.09,22.86 Q 167.32,20.07 162.78,19.49 Q 157.82,18.86 153.56,21.06 Q 144.16,25.92 143.97,35.53 Q 143.82,42.75 148.10,47.57 Q 152.52,52.55 160.60,53.57 Z"/>
<path fill="#000000" d="M 104.55,42.38 L 89.35,55.76 A 0.70,0.68 -45.0 0 1 88.42,55.77 L 74.01,42.66 Q 73.19,41.91 72.98,43.00 L 67.91,68.98 A 0.94,0.92 -84.3 0 1 67.00,69.74 L 52.14,69.69 A 0.57,0.56 4.4 0 1 51.58,69.04 L 62.75,0.99 Q 62.89,0.17 63.43,0.80 L 88.70,30.15 A 0.75,0.75 -45.5 0 0 89.85,30.14 L 114.02,0.97 Q 114.71,0.14 114.90,1.20 L 126.91,69.24 A 0.44,0.43 -5.0 0 1 126.48,69.75 L 109.84,69.75 A 0.79,0.77 -4.2 0 1 109.06,69.10 L 105.00,42.56 Q 104.92,42.05 104.55,42.38 Z"/>
<path fill="#000000" d="M 32.04,3.77 Q 44.01,6.65 50.26,17.22 Q 54.54,24.44 54.25,32.30 Q 53.98,39.91 49.75,46.56 Q 43.56,56.30 31.00,58.73 Q 25.89,59.72 20.01,59.54 A 0.74,0.72 0.4 0 0 19.25,60.27 L 19.30,69.06 A 0.51,0.49 89.4 0 1 18.81,69.58 L 1.25,69.73 A 0.77,0.74 89.6 0 1 0.50,68.96 L 0.44,3.58 A 0.82,0.82 89.7 0 1 1.26,2.75 Q 12.88,2.75 24.75,2.75 Q 27.78,2.75 32.04,3.77 ZM 27.03,22.12 Q 24.17,21.61 20.19,21.80 A 0.99,0.99 -1.5 0 0 19.25,22.79 L 19.25,39.80 A 0.95,0.95 -88.9 0 0 20.20,40.75 Q 22.37,40.75 24.50,40.74 Q 31.10,40.70 33.80,36.01 Q 36.10,32.02 34.55,27.80 Q 32.85,23.16 27.03,22.12 Z"/>
<path fill="#000000" d="M 190.62,51.97 A 0.57,0.56 27.2 0 1 190.87,52.73 Q 184.38,65.06 171.99,69.17 A 0.75,0.74 73.1 0 1 171.04,68.65 L 162.83,38.78 Q 162.55,37.77 163.49,38.24 L 190.62,51.97 Z"/>
<path fill="#000000" d="M 202.94,58.13 A 1.56,1.52 20.9 0 1 203.76,59.90 Q 202.26,65.59 198.80,69.85 Q 195.63,73.76 190.68,77.09 Q 184.18,81.48 175.85,82.55 A 0.90,0.90 -12.1 0 1 174.87,81.92 L 172.42,73.59 A 1.01,1.00 -18.5 0 1 173.04,72.36 Q 186.99,67.07 193.91,54.28 A 0.64,0.62 27.8 0 1 194.75,54.03 L 202.94,58.13 Z"/>
<path fill="#000000" d="M 0.00,99.44 Q 0.00,89.56 0.00,79.69 Q 1.89,79.17 3.83,79.15 Q 5.86,79.13 7.68,79.18 Q 13.60,79.32 14.58,84.56 Q 15.26,88.18 13.22,90.56 Q 10.96,93.19 6.50,92.72 A 1.12,1.07 2.4 0 0 5.26,93.81 L 5.39,99.44 A 0.62,0.56 83.3 0 1 4.95,100.06 Q 2.76,100.58 0.56,100.07 A 0.60,0.27 75.1 0 1 0.25,99.69 Q 0.19,99.54 0.00,99.44 ZM 5.39,86.48 Q 5.19,88.09 8.13,87.60 A 1.59,1.59 -11.5 0 0 9.42,85.66 Q 9.00,83.95 6.74,84.02 Q 4.93,84.09 5.33,85.53 Q 5.45,85.97 5.39,86.48 Z"/>
<rect fill="#000000" x="16.75" y="79.25" width="5.50" height="21.00" rx="0.71"/>
<path fill="#000000" d="M 30.34,84.32 L 25.67,84.11 A 0.60,0.54 1.7 0 1 25.10,83.57 L 25.10,79.92 A 0.59,0.51 0.0 0 1 25.69,79.41 L 37.44,79.29 A 0.68,0.64 82.5 0 1 38.07,79.80 Q 38.74,82.46 37.81,84.06 Q 34.95,89.03 31.65,94.05 Q 30.93,95.16 32.20,95.15 L 37.44,95.12 A 0.72,0.58 -7.4 0 1 38.11,95.53 Q 38.30,96.17 38.30,96.84 Q 38.30,97.58 38.35,98.16 Q 38.57,100.50 36.31,100.36 Q 34.76,100.27 34.67,100.27 Q 30.05,100.36 25.43,100.09 A 0.66,0.65 -3.9 0 1 24.82,99.57 Q 24.13,96.35 25.81,93.78 Q 26.93,92.06 26.95,92.03 Q 28.76,88.84 30.89,85.27 A 0.65,0.63 16.0 0 0 30.34,84.32 Z"/>
<path fill="#000000" d="M 53.63,99.28 Q 53.86,99.28 53.97,98.99 Q 57.37,89.45 61.10,79.73 A 0.76,0.75 -79.1 0 1 61.80,79.25 L 66.47,79.25 A 0.97,0.96 79.3 0 1 67.37,79.87 L 74.59,99.21 A 0.66,0.61 79.3 0 1 74.04,100.10 L 69.30,100.06 A 0.72,0.53 84.9 0 1 68.76,99.45 Q 68.53,97.88 67.53,96.68 A 1.17,0.89 -16.3 0 0 66.70,96.36 L 61.20,96.49 A 1.00,0.93 2.3 0 0 60.24,97.32 Q 60.10,98.61 59.45,99.76 A 0.89,0.83 13.7 0 1 58.69,100.19 L 40.76,100.25 A 1.01,1.01 -88.3 0 1 39.75,99.24 Q 39.75,97.98 39.75,97.08 Q 39.75,96.00 40.28,95.06 Q 42.95,90.40 46.09,85.28 Q 46.71,84.27 45.51,84.26 L 40.82,84.21 A 0.66,0.64 -5.5 0 1 40.19,83.71 Q 39.75,81.83 40.09,79.92 A 0.62,0.62 4.5 0 1 40.69,79.41 L 52.55,79.27 A 1.03,0.88 -87.9 0 1 53.42,80.37 L 53.22,83.25 Q 53.17,83.89 52.99,84.18 L 46.72,94.43 Q 46.24,95.23 47.15,95.22 L 52.52,95.17 A 1.01,0.86 -89.0 0 1 53.38,96.22 L 53.27,98.85 A 0.41,0.35 -89.2 0 0 53.63,99.28 ZM 64.19,91.31 A 1.71,0.94 -16.1 0 0 65.50,90.00 Q 64.22,83.27 62.72,90.24 Q 62.37,91.89 64.19,91.31 Z"/>
<path fill="#000000" d="M 91.20,92.65 Q 91.50,93.49 91.80,92.63 L 96.06,80.13 A 1.33,1.30 9.2 0 1 97.31,79.25 L 102.10,79.25 A 0.65,0.64 -0.0 0 1 102.75,79.89 L 102.69,99.19 A 0.78,0.74 79.3 0 1 102.23,99.90 Q 100.31,100.69 98.29,100.10 A 0.80,0.75 -85.9 0 1 97.75,99.43 Q 97.20,94.71 97.87,90.01 A 0.49,0.39 -85.0 0 0 97.50,89.45 Q 97.18,89.46 97.06,89.81 Q 95.53,94.63 94.17,98.73 A 1.80,1.80 -87.9 0 1 92.90,99.91 Q 90.17,100.57 89.11,99.69 Q 88.85,99.48 87.87,96.83 Q 86.77,93.84 85.92,90.77 Q 85.33,88.64 85.04,90.69 Q 85.00,90.98 85.03,91.32 Q 85.40,95.25 85.21,99.19 A 0.82,0.76 80.5 0 1 84.74,99.90 Q 82.60,100.80 80.39,100.00 A 0.73,0.73 10.5 0 1 79.92,99.32 L 79.76,80.12 A 0.88,0.87 -0.0 0 1 80.64,79.25 L 85.65,79.25 A 1.11,1.06 79.9 0 1 86.66,79.99 L 91.20,92.65 Z"/>
<path fill="#000000" d="M 111.43,92.80 Q 110.81,95.53 113.33,95.38 Q 114.88,95.29 115.18,95.28 Q 116.30,95.25 117.55,94.92 A 0.70,0.64 -7.6 0 1 118.42,95.53 L 118.39,99.58 A 0.60,0.52 -0.6 0 1 117.80,100.10 L 107.30,100.21 A 1.08,1.04 89.7 0 1 106.25,99.13 L 106.25,79.91 A 0.66,0.66 -45.0 0 1 106.91,79.25 L 117.70,79.25 A 0.65,0.59 -0.9 0 1 118.35,79.82 L 118.50,83.69 A 0.58,0.49 -2.1 0 1 117.94,84.20 L 112.30,84.30 A 0.77,0.69 8.1 0 0 111.61,84.76 Q 111.24,85.75 111.61,86.73 A 0.78,0.61 -8.2 0 0 112.32,87.14 L 117.18,87.03 A 0.69,0.65 81.5 0 1 117.83,87.54 Q 118.40,89.58 117.74,91.59 A 0.77,0.73 -81.2 0 1 117.07,92.11 L 112.06,92.32 A 0.69,0.62 4.9 0 0 111.43,92.80 Z"/>
<path fill="#000000" d="M 135.81,81.19 Q 138.72,83.22 139.40,86.52 Q 141.71,97.83 130.75,100.25 Q 129.19,100.59 122.19,100.10 A 0.57,0.53 2.3 0 1 121.66,99.57 L 121.67,79.94 A 0.58,0.55 -2.9 0 1 122.19,79.39 Q 125.59,79.11 129.00,79.05 Q 132.66,78.99 135.81,81.19 ZM 130.74,84.54 Q 129.18,84.10 127.26,84.30 A 0.58,0.57 -3.4 0 0 126.75,84.87 L 126.75,94.07 A 1.17,1.17 0.8 0 0 127.89,95.24 Q 130.25,95.29 131.89,94.40 Q 133.59,93.48 134.24,91.40 Q 135.08,88.71 133.46,86.46 Q 132.41,85.01 130.74,84.54 Z"/>
<rect fill="#000000" x="142.24" y="79.25" width="5.26" height="21.00" rx="0.52"/>
<path fill="#000000" d="M 156.02,97.06 Q 155.49,101.21 149.68,99.97 A 0.53,0.53 -73.9 0 1 149.30,99.28 L 156.22,80.34 A 1.57,1.36 -78.3 0 1 157.57,79.31 L 162.08,79.37 A 0.83,0.66 77.7 0 1 162.75,79.91 L 169.95,99.33 A 0.45,0.44 74.3 0 1 169.62,99.92 Q 163.94,101.08 163.36,97.19 A 0.67,0.54 85.6 0 0 162.82,96.62 L 156.56,96.51 A 0.62,0.52 -85.3 0 0 156.02,97.06 ZM 159.20,87.41 L 158.17,90.71 A 0.50,0.46 14.9 0 0 158.55,91.31 Q 162.86,92.33 159.97,87.34 Q 159.48,86.50 159.20,87.41 Z"/>
</svg>
