<svg width="39" height="38" viewBox="0 0 39 38" fill="none" xmlns="http://www.w3.org/2000/svg">
<path d="M18.6031 1.47393C18.9025 0.552618 20.2059 0.552616 20.5053 1.47393L24.3655 13.3544C24.4993 13.7664 24.8833 14.0454 25.3165 14.0454H37.8084C38.7771 14.0454 39.1799 15.285 38.3962 15.8544L28.29 23.197C27.9396 23.4516 27.7929 23.903 27.9268 24.315L31.787 36.1955C32.0863 37.1168 31.0319 37.8829 30.2481 37.3135L20.142 29.971C19.7915 29.7163 19.3169 29.7163 18.9664 29.971L8.86026 37.3135C8.07654 37.8829 7.02206 37.1168 7.32142 36.1955L11.1816 24.315C11.3155 23.903 11.1688 23.4516 10.8184 23.197L0.712199 15.8544C-0.0715144 15.285 0.33126 14.0454 1.29998 14.0454H13.7919C14.2251 14.0454 14.6091 13.7664 14.7429 13.3544L18.6031 1.47393Z" fill="currentColor"/>
</svg>
